<svg width="112" height="40" viewBox="0 0 112 40" fill="none" xmlns="http://www.w3.org/2000/svg">
<path d="M0.536 36.368L0.408 36.176V35.856L0.664 35.664L0.344 35.472V28.816L0.216 27.92H0.408V24.592L0.28 24.08L0.408 23.824V21.648L0.28 21.776L0.408 21.456V17.552L0.28 17.36L0.536 16.016L0.408 15.632V13.904L0.28 13.712L0.536 13.584L0.344 13.456V13.136L0.536 12.88L0.344 12.752L0.536 12.688L0.408 12.368V12.432L0.536 12.368V12.112L0.28 11.664L0.536 11.6V11.408L0.344 11.28V10.768L0.6 10.704L0.28 10.384L0.216 9.936L0.536 9.744L0.6 9.424L0.408 9.36V8.272L0.536 8.144L0.408 7.504L0.536 7.312V5.52L0.664 5.456L0.536 5.136L0.6 4.752H0.728L0.6 4.496V3.216L0.216 2.896H9.688L10.2 3.088H13.976L14.104 2.896L14.232 3.024H15.064L14.872 3.088L15.128 3.152L15.192 3.024L15.576 3.088L15.832 3.728L15.384 7.12L15.512 7.184L15.384 7.376L15.448 8.016L15.384 7.952V10.576L15.192 10.64L15.384 10.768L15.128 11.152L15.256 11.088V11.28L15.064 11.408L15.384 11.472L15.192 11.664V12.304L15.448 12.432L15.128 12.88L15.256 12.944L15.064 13.008L15.192 13.072L15.128 13.584L15.256 13.648L15.064 13.904H15.192L15.128 14.032H15.256L15.128 14.224L15.192 14.672L15.064 15.376H15.192L15.064 15.952L15.192 16.016L15.064 16.592L14.936 16.656L15.064 16.72V17.168L15.768 17.296L15.064 17.36L14.936 18L15.064 18.576L14.872 18.832L15.064 19.152L14.936 20.24L15.064 20.88L14.936 20.944V24.08L15.064 24.336V26.512L14.936 26.64L15.128 26.896L14.936 27.088V30.8L15.064 30.928L14.936 31.056V34L15.064 34.064L14.936 34.32L15.128 34.384L14.936 34.448L15.064 34.64L14.936 34.704H15.128L14.872 34.96H15.064L14.936 35.152L15.128 35.344L14.936 35.792L15.064 35.856V36.176L14.232 36.816L13.912 36.752L13.976 36.816H12.952L12.504 36.944L12.44 36.816L11.928 36.944L11.864 36.816L11.544 36.752L10.84 36.944H10.2L9.944 36.752H9.688L9.56 36.624L9.624 36.368H9.304L9.88 36.112L9.688 36.048L9.944 35.856L9.624 35.792L9.688 35.728L9.56 35.536V35.152L9.816 34.832L9.688 34.768L9.88 34.704L9.624 34.64L9.688 34.32H9.496V34.128L9.944 34.192L9.624 33.872L9.944 33.424L9.816 33.36V33.04H9.56L9.624 32.848L9.944 32.656V32.528H9.816V32.4H9.496L9.688 32.208L9.432 31.824L9.56 31.696L9.432 31.568L9.496 31.056L9.688 30.864L9.624 30.928V30.352L9.56 30.48L9.752 29.84L9.624 28.88L9.752 27.152L9.688 26.896H5.72L5.528 27.28V29.84H5.592V36.176L5.336 36.944L4.056 36.688L3.544 36.432L3.352 36.624L1.304 36.752L1.176 36.496L0.92 36.624V36.432L0.536 36.368ZM1.56 36.496L1.368 36.624L1.56 36.496ZM3.16 36.496H3.032H3.16ZM0.92 35.408L1.752 36.048L1.88 35.664L0.92 35.728V35.408ZM3.928 35.792L4.248 35.472H3.352L3.288 35.344L3.224 35.536L3.928 35.792ZM3.864 35.152H3.736H3.864ZM10.264 34.704L10.52 34.64L10.456 34.064L10.648 33.808H10.264L10.2 34.32L10.328 34.128L10.2 34.512L10.264 34.704ZM9.496 34.704L9.56 34.512L9.496 34.704ZM9.944 33.552L9.88 33.872L9.944 33.552ZM10.648 33.552L10.776 33.872L10.84 33.744H10.776L10.648 33.552ZM9.624 33.744V33.488V33.744ZM10.264 33.424V33.488V33.424ZM9.88 33.104L9.944 33.488L9.88 33.104ZM9.432 32.72L9.56 32.656L9.432 32.72ZM9.688 31.824L9.624 31.504L9.688 31.824ZM9.688 31.376L9.624 31.568L9.688 31.376ZM9.624 30.736L9.56 31.056L9.624 30.736ZM9.688 28.56V29.2V28.56ZM9.624 29.2V28.432V29.2ZM9.176 23.632L9.24 24.208L9.176 23.632ZM8.024 23.632L8.152 23.568V23.312L8.984 23.504L9.176 23.312L9.24 23.44H9.496V23.12L9.304 23.312L9.24 23.184L9.112 23.248L8.984 23.12L8.216 23.632L7.896 23.312L8.024 23.632ZM8.664 23.568L8.6 23.632L8.664 23.568ZM8.92 23.312V23.184V23.312ZM9.432 21.776L9.496 21.648L9.432 21.776ZM5.848 21.776V21.648V21.776ZM14.744 21.008L14.808 21.648L14.744 21.008ZM9.88 19.664L9.816 20.368L9.88 19.664ZM9.944 18.896L9.816 18.64L9.944 18.896ZM9.432 18.384V18.32V18.384ZM9.944 18.064H9.88H9.944ZM9.624 17.68L9.816 18.064L9.624 17.68ZM10.008 14.288L9.816 14.544L10.008 14.288ZM0.536 13.328H0.408H0.536ZM6.168 14.096L6.04 14.224V14.672L6.232 14.864L5.976 15.632V17.232L5.848 17.68L5.912 18.192L5.72 18.512H5.912L5.72 18.96L5.848 19.024V19.536L6.04 19.664V21.904L7.96 21.648L8.024 21.84L8.152 21.648L8.216 21.776L8.6 21.904H9.24L9.56 21.328L9.432 21.456L9.816 20.944L9.624 21.2L9.56 21.008L9.752 20.88V19.92L9.88 19.856L9.752 19.728L9.816 19.216L10.008 19.664L9.816 19.728L9.944 19.024L9.624 18.832L9.88 18.32L9.56 18.384L9.816 17.872L9.56 18.064L9.432 17.936L9.752 17.296L9.944 16.528V14.992L9.88 15.056V14.096L10.008 13.904L9.816 13.712L9.944 13.584V13.328L9.816 13.456L10.008 12.944L9.816 13.072L9.752 12.624L9.88 11.6L9.688 11.408L9.944 11.344L9.816 11.024L9.944 10.448V8.016L9.624 7.952L6.168 8.336L5.976 8.528V10.448L5.848 10.576L6.04 10.96L5.912 11.088L6.04 11.472V12.624L6.168 14.096ZM15.064 12.112V12.688V12.112ZM9.688 11.728L9.816 11.664L9.688 11.728ZM9.944 10.768V11.408V10.768ZM0.408 9.936L0.536 9.808L0.408 9.936ZM0.28 9.488H0.344H0.28ZM5.912 8.336V8.528V8.336ZM15.576 4.56L15.448 4.688L15.576 4.56ZM15.512 3.92L15.576 4.688L15.512 3.92ZM2.584 3.856H2.712H2.584ZM1.56 3.792V3.856V3.792ZM1.944 3.728H2.264V3.856L2.648 3.664H2.904L3.224 3.472L3.16 3.152L2.392 3.344L2.264 3.216H1.304L1.048 3.344L1.56 3.728L1.624 3.536L1.88 3.664L1.752 3.792L1.944 3.728ZM3.608 3.792L3.992 3.728V3.536L4.184 3.664V3.216L3.736 3.664V3.344H3.416L3.288 3.728H2.968L3.608 3.792ZM4.312 3.664L4.248 3.792L4.312 3.664ZM5.144 3.536H5.272H5.144ZM5.848 3.472H5.592H5.848ZM8.152 3.216L7.832 3.152V3.344L8.152 3.216ZM2.072 3.472V3.216L2.52 3.408L2.072 3.472ZM3.416 3.536H3.608H3.416ZM4.824 3.472V3.536V3.472ZM1.88 3.536L1.752 3.408L1.88 3.536ZM7.32 3.408L7.448 3.216L7.128 3.344V3.152H5.592V3.536L6.04 3.408H7.32ZM7.832 3.472L7.64 3.408L7.832 3.472ZM5.336 3.408V3.216H4.952L5.336 3.408ZM4.632 3.344H4.312H4.632ZM5.144 3.344H5.016H5.144ZM14.744 3.152L14.616 3.344L14.744 3.152ZM23.2735 39.696L23.0815 39.312L22.4415 39.184V39.056L23.0815 38.992L22.8895 38.352L23.0815 37.392L22.8895 36.624L23.1455 36.112L22.8895 36.048L23.0175 35.152V33.744L22.8255 33.552L23.0175 33.104L22.8895 32.72L23.0175 31.44L22.8895 31.376L23.0175 31.312L22.8895 31.12L23.0815 30.544V25.616L23.2735 25.424L23.0815 24.144V22.864L22.8255 22.736L23.1455 22.608V20.496L23.2735 19.536V17.232L23.0815 17.168L23.2735 16.976L23.0815 14.16V12.304H20.7135L20.5215 12.432H20.0735L19.1135 12.688H18.4735L18.2815 12.496L18.1535 12.112L17.9615 12.432L17.7695 11.92V11.6L17.3855 10.32L17.5775 10.128L17.3855 10L17.5775 9.488L17.7695 9.296L17.6415 8.016L17.5135 7.76L17.6415 6.8L17.5775 6.288L17.3215 6.16L17.5135 6.288L17.7695 6.16L17.9615 5.712L18.1535 6.16L19.2415 5.968H20.3935L20.5215 6.096L20.7775 5.968L21.4175 6.096H22.8895L23.1455 5.712V3.408L23.3375 1.68L23.2735 0.848L24.1695 0.528L24.5535 0.783997H29.2895L29.4175 1.232L29.2895 1.808L29.0335 1.936L29.2895 2.064L29.1615 2.512L29.4175 2.576V2.896L29.2255 2.96L29.2895 3.344L29.4175 3.408L29.2255 3.536L29.4175 3.6V3.792L29.2255 3.984L29.2895 4.24L29.0335 4.368L29.2895 4.432L29.1615 4.688H28.9695V4.816H29.4815L29.2255 5.328L29.4175 5.456V5.648L29.1615 5.712L29.4815 5.968H33.6415V5.84H34.2815L34.7295 6.096L34.9215 5.968L35.3055 6.16V6.352L34.7295 6.928L34.7935 7.12L35.1135 6.8V7.824H34.9215L35.1135 8.08V8.72L34.9855 8.912L35.1135 9.232V9.68L34.9215 9.744L35.1135 9.872V10.832L34.9855 10.96L35.1135 11.024L35.1775 11.28L34.9215 11.408L35.3055 11.856L34.2815 12.688L33.0015 12.944L32.1695 12.88L31.9775 12.752H31.0815L30.7615 12.88H29.6095L29.1615 16.144L29.2255 16.464L29.0335 16.528L29.2255 16.592L29.1615 16.976L29.8015 17.168L29.2255 17.552L29.4175 18.256L29.2255 18.448L29.2895 19.28L29.1615 19.472L29.4175 19.92L29.0335 20.112L29.4175 20.304L29.1615 20.368L29.4175 20.624L29.2255 21.2L29.4815 22.48L29.8015 22.608L29.6095 22.736L29.4175 23.12V23.504L29.2255 23.696L29.2895 23.888L29.0335 24.144L29.4175 24.208L29.1615 25.04L29.4815 25.168L29.2895 26.256L29.4175 26.512L29.2895 26.704V27.088L29.4175 27.152L29.2895 27.28L29.4175 28.048V29.328L29.1615 31.312L29.4175 31.376L29.2895 31.76L29.4175 32.464V33.552L29.6095 34.768L29.4815 35.216L29.6095 35.856V38.16L29.4815 38.544L29.2895 38.608L29.2255 38.8L29.0335 38.864L29.6735 39.056L28.8415 39.248L28.6495 39.696L28.3935 39.632V39.44H27.8815L27.1135 39.632H23.6575L23.2735 39.696ZM28.6495 39.248V39.696V39.248ZM26.4095 38.224V37.584L26.2815 37.264L26.0255 38.16L26.4095 38.224ZM23.1455 34.576L23.0815 34.384L23.1455 34.576ZM29.2895 24.848V24.784V24.848ZM29.1615 24.656V24.784V24.656ZM29.2255 22.48L29.1615 22.608L29.2255 22.48ZM29.2255 22.096H29.0335H29.2255ZM29.0335 20.368V20.496V20.368ZM25.1935 20.112L25.0015 19.536L24.6175 19.344L25.0015 19.92L25.1935 20.112ZM29.1615 19.024H29.0335H29.1615ZM33.8335 10.768L34.0255 10.576L33.8335 10.32L34.0255 10.128L33.8335 9.744L33.7055 9.872V10.512L33.8335 10.768ZM33.8335 9.488V9.552V9.488ZM34.9215 8.656H34.7935H34.9215ZM34.9215 8.4V8.464V8.4ZM19.0495 7.376L19.2415 7.184H19.0495L18.9855 7.376L18.7935 7.44V8.464L18.9855 7.632L19.0495 7.376ZM21.5455 7.184H21.7375L21.8655 6.8L21.5455 6.992L21.4175 6.928L21.2255 7.12L21.5455 7.184ZM33.0015 7.12L33.3215 7.184V6.992L33.0015 7.12ZM19.7535 6.8L19.8815 6.544L20.0735 6.608V6.48H18.6655L18.6015 7.12L18.9855 6.8H19.7535ZM32.1695 6.8H31.9775L31.7215 6.992L32.1695 6.8ZM32.8735 6.928V6.736H32.4255L32.5535 6.8L32.8735 6.928ZM19.1135 6.736L19.2415 6.928L19.1135 6.736ZM31.3375 6.736L31.7855 6.928L31.5935 6.8L31.3375 6.736ZM20.5855 6.736L20.7135 6.8L20.3935 6.544L20.5855 6.736ZM31.1455 6.608L31.0815 6.736L31.1455 6.608ZM32.8095 6.608L33.0655 6.48H32.6175L32.8095 6.608ZM20.9055 6.48L20.7775 6.608L20.9055 6.48ZM31.7855 6.48L31.7215 6.608L31.7855 6.48ZM27.4975 5.072L27.1775 5.2V4.688L27.4975 4.88L27.6895 4.688L27.3695 4.368L27.5615 4.048L27.4975 3.792H27.3695V3.6L27.6895 3.856V4.432L27.9455 4.688L27.7535 5.072L27.8815 5.328H27.7535L27.4975 5.072ZM27.1135 5.264L27.0495 5.328L27.1135 5.264ZM27.8815 4.368H27.7535H27.8815ZM26.8575 4.048L26.9215 4.176L26.8575 4.048ZM27.1135 4.24H27.0495H27.1135ZM27.3055 4.048L27.3695 4.24L27.3055 4.048ZM29.2255 2.704V2.896V2.704ZM42.0235 39.696L41.8315 39.312L41.1915 39.184V39.056L41.8315 38.992L41.6395 38.352L41.8315 37.392L41.6395 36.624L41.8955 36.112L41.6395 36.048L41.7675 35.152V33.744L41.5755 33.552L41.7675 33.104L41.6395 32.72L41.7675 31.44L41.6395 31.376L41.7675 31.312L41.6395 31.12L41.8315 30.544V25.616L42.0235 25.424L41.8315 24.144V22.864L41.5755 22.736L41.8955 22.608V20.496L42.0235 19.536V17.232L41.8315 17.168L42.0235 16.976L41.8315 14.16V12.304H39.4635L39.2715 12.432H38.8235L37.8635 12.688H37.2235L37.0315 12.496L36.9035 12.112L36.7115 12.432L36.5195 11.92V11.6L36.1355 10.32L36.3275 10.128L36.1355 10L36.3275 9.488L36.5195 9.296L36.3915 8.016L36.2635 7.76L36.3915 6.8L36.3275 6.288L36.0715 6.16L36.2635 6.288L36.5195 6.16L36.7115 5.712L36.9035 6.16L37.9915 5.968H39.1435L39.2715 6.096L39.5275 5.968L40.1675 6.096H41.6395L41.8955 5.712V3.408L42.0875 1.68L42.0235 0.848L42.9195 0.528L43.3035 0.783997H48.0395L48.1675 1.232L48.0395 1.808L47.7835 1.936L48.0395 2.064L47.9115 2.512L48.1675 2.576V2.896L47.9755 2.96L48.0395 3.344L48.1675 3.408L47.9755 3.536L48.1675 3.6V3.792L47.9755 3.984L48.0395 4.24L47.7835 4.368L48.0395 4.432L47.9115 4.688H47.7195V4.816H48.2315L47.9755 5.328L48.1675 5.456V5.648L47.9115 5.712L48.2315 5.968H52.3915V5.84H53.0315L53.4795 6.096L53.6715 5.968L54.0555 6.16V6.352L53.4795 6.928L53.5435 7.12L53.8635 6.8V7.824H53.6715L53.8635 8.08V8.72L53.7355 8.912L53.8635 9.232V9.68L53.6715 9.744L53.8635 9.872V10.832L53.7355 10.96L53.8635 11.024L53.9275 11.28L53.6715 11.408L54.0555 11.856L53.0315 12.688L51.7515 12.944L50.9195 12.88L50.7275 12.752H49.8315L49.5115 12.88H48.3595L47.9115 16.144L47.9755 16.464L47.7835 16.528L47.9755 16.592L47.9115 16.976L48.5515 17.168L47.9755 17.552L48.1675 18.256L47.9755 18.448L48.0395 19.28L47.9115 19.472L48.1675 19.92L47.7835 20.112L48.1675 20.304L47.9115 20.368L48.1675 20.624L47.9755 21.2L48.2315 22.48L48.5515 22.608L48.3595 22.736L48.1675 23.12V23.504L47.9755 23.696L48.0395 23.888L47.7835 24.144L48.1675 24.208L47.9115 25.04L48.2315 25.168L48.0395 26.256L48.1675 26.512L48.0395 26.704V27.088L48.1675 27.152L48.0395 27.28L48.1675 28.048V29.328L47.9115 31.312L48.1675 31.376L48.0395 31.76L48.1675 32.464V33.552L48.3595 34.768L48.2315 35.216L48.3595 35.856V38.16L48.2315 38.544L48.0395 38.608L47.9755 38.8L47.7835 38.864L48.4235 39.056L47.5915 39.248L47.3995 39.696L47.1435 39.632V39.44H46.6315L45.8635 39.632H42.4075L42.0235 39.696ZM47.3995 39.248V39.696V39.248ZM45.1595 38.224V37.584L45.0315 37.264L44.7755 38.16L45.1595 38.224ZM41.8955 34.576L41.8315 34.384L41.8955 34.576ZM48.0395 24.848V24.784V24.848ZM47.9115 24.656V24.784V24.656ZM47.9755 22.48L47.9115 22.608L47.9755 22.48ZM47.9755 22.096H47.7835H47.9755ZM47.7835 20.368V20.496V20.368ZM43.9435 20.112L43.7515 19.536L43.3675 19.344L43.7515 19.92L43.9435 20.112ZM47.9115 19.024H47.7835H47.9115ZM52.5835 10.768L52.7755 10.576L52.5835 10.32L52.7755 10.128L52.5835 9.744L52.4555 9.872V10.512L52.5835 10.768ZM52.5835 9.488V9.552V9.488ZM53.6715 8.656H53.5435H53.6715ZM53.6715 8.4V8.464V8.4ZM37.7995 7.376L37.9915 7.184H37.7995L37.7355 7.376L37.5435 7.44V8.464L37.7355 7.632L37.7995 7.376ZM40.2955 7.184H40.4875L40.6155 6.8L40.2955 6.992L40.1675 6.928L39.9755 7.12L40.2955 7.184ZM51.7515 7.12L52.0715 7.184V6.992L51.7515 7.12ZM38.5035 6.8L38.6315 6.544L38.8235 6.608V6.48H37.4155L37.3515 7.12L37.7355 6.8H38.5035ZM50.9195 6.8H50.7275L50.4715 6.992L50.9195 6.8ZM51.6235 6.928V6.736H51.1755L51.3035 6.8L51.6235 6.928ZM37.8635 6.736L37.9915 6.928L37.8635 6.736ZM50.0875 6.736L50.5355 6.928L50.3435 6.8L50.0875 6.736ZM39.3355 6.736L39.4635 6.8L39.1435 6.544L39.3355 6.736ZM49.8955 6.608L49.8315 6.736L49.8955 6.608ZM51.5595 6.608L51.8155 6.48H51.3675L51.5595 6.608ZM39.6555 6.48L39.5275 6.608L39.6555 6.48ZM50.5355 6.48L50.4715 6.608L50.5355 6.48ZM46.2475 5.072L45.9275 5.2V4.688L46.2475 4.88L46.4395 4.688L46.1195 4.368L46.3115 4.048L46.2475 3.792H46.1195V3.6L46.4395 3.856V4.432L46.6955 4.688L46.5035 5.072L46.6315 5.328H46.5035L46.2475 5.072ZM45.8635 5.264L45.7995 5.328L45.8635 5.264ZM46.6315 4.368H46.5035H46.6315ZM45.6075 4.048L45.6715 4.176L45.6075 4.048ZM45.8635 4.24H45.7995H45.8635ZM46.0555 4.048L46.1195 4.24L46.0555 4.048ZM47.9755 2.704V2.896V2.704ZM55.9735 36.368L55.8455 36.176V35.856L56.1015 35.664L55.7815 35.472V28.816L55.6535 27.92H55.8455V24.592L55.7175 24.08L55.8455 23.824V21.648L55.7175 21.776L55.8455 21.456V17.552L55.7175 17.36L55.9735 16.016L55.8455 15.632V13.904L55.7175 13.712L55.9735 13.584L55.7815 13.456V13.136L55.9735 12.88L55.7815 12.752L55.9735 12.688L55.8455 12.368V12.432L55.9735 12.368V12.112L55.7175 11.664L55.9735 11.6V11.408L55.7815 11.28V10.768L56.0375 10.704L55.7175 10.384L55.6535 9.936L55.9735 9.744L56.0375 9.424L55.8455 9.36V8.272L55.9735 8.144L55.8455 7.504L55.9735 7.312V5.52L56.1015 5.456L55.9735 5.136L56.0375 4.752H56.1655L56.0375 4.496V3.216L55.6535 2.896H65.1255L65.6375 3.088H69.4135L69.5415 2.896L69.6695 3.024H70.5015L70.3095 3.088L70.5655 3.152L70.6295 3.024L71.0135 3.088L71.2695 3.728L70.8215 7.12L70.9495 7.184L70.8215 7.376L70.8855 8.016L70.8215 7.952V10.576L70.6295 10.64L70.8215 10.768L70.5655 11.152L70.6935 11.088V11.28L70.5015 11.408L70.8215 11.472L70.6295 11.664V12.304L70.8855 12.432L70.5655 12.88L70.6935 12.944L70.5015 13.008L70.6295 13.072L70.5655 13.584L70.6935 13.648L70.5015 13.904H70.6295L70.5655 14.032H70.6935L70.5655 14.224L70.6295 14.672L70.5015 15.376H70.6295L70.5015 15.952L70.6295 16.016L70.5015 16.592L70.3735 16.656L70.5015 16.72V17.168L71.2055 17.296L70.5015 17.36L70.3735 18L70.5015 18.576L70.3095 18.832L70.5015 19.152L70.3735 20.24L70.5015 20.88L70.3735 20.944V24.08L70.5015 24.336V26.512L70.3735 26.64L70.5655 26.896L70.3735 27.088V30.8L70.5015 30.928L70.3735 31.056V34L70.5015 34.064L70.3735 34.32L70.5655 34.384L70.3735 34.448L70.5015 34.64L70.3735 34.704H70.5655L70.3095 34.96H70.5015L70.3735 35.152L70.5655 35.344L70.3735 35.792L70.5015 35.856V36.176L69.6695 36.816L69.3495 36.752L69.4135 36.816H68.3895L67.9415 36.944L67.8775 36.816L67.3655 36.944L67.3015 36.816L66.9815 36.752L66.2775 36.944H65.6375L65.3815 36.752H65.1255L64.9975 36.624L65.0615 36.368H64.7415L65.3175 36.112L65.1255 36.048L65.3815 35.856L65.0615 35.792L65.1255 35.728L64.9975 35.536V35.152L65.2535 34.832L65.1255 34.768L65.3175 34.704L65.0615 34.64L65.1255 34.32H64.9335V34.128L65.3815 34.192L65.0615 33.872L65.3815 33.424L65.2535 33.36V33.04H64.9975L65.0615 32.848L65.3815 32.656V32.528H65.2535V32.4H64.9335L65.1255 32.208L64.8695 31.824L64.9975 31.696L64.8695 31.568L64.9335 31.056L65.1255 30.864L65.0615 30.928V30.352L64.9975 30.48L65.1895 29.84L65.0615 28.88L65.1895 27.152L65.1255 26.896H61.1575L60.9655 27.28V29.84H61.0295V36.176L60.7735 36.944L59.4935 36.688L58.9815 36.432L58.7895 36.624L56.7415 36.752L56.6135 36.496L56.3575 36.624V36.432L55.9735 36.368ZM56.9975 36.496L56.8055 36.624L56.9975 36.496ZM58.5975 36.496H58.4695H58.5975ZM56.3575 35.408L57.1895 36.048L57.3175 35.664L56.3575 35.728V35.408ZM59.3655 35.792L59.6855 35.472H58.7895L58.7255 35.344L58.6615 35.536L59.3655 35.792ZM59.3015 35.152H59.1735H59.3015ZM65.7015 34.704L65.9575 34.64L65.8935 34.064L66.0855 33.808H65.7015L65.6375 34.32L65.7655 34.128L65.6375 34.512L65.7015 34.704ZM64.9335 34.704L64.9975 34.512L64.9335 34.704ZM65.3815 33.552L65.3175 33.872L65.3815 33.552ZM66.0855 33.552L66.2135 33.872L66.2775 33.744H66.2135L66.0855 33.552ZM65.0615 33.744V33.488V33.744ZM65.7015 33.424V33.488V33.424ZM65.3175 33.104L65.3815 33.488L65.3175 33.104ZM64.8695 32.72L64.9975 32.656L64.8695 32.72ZM65.1255 31.824L65.0615 31.504L65.1255 31.824ZM65.1255 31.376L65.0615 31.568L65.1255 31.376ZM65.0615 30.736L64.9975 31.056L65.0615 30.736ZM65.1255 28.56V29.2V28.56ZM65.0615 29.2V28.432V29.2ZM64.6135 23.632L64.6775 24.208L64.6135 23.632ZM63.4615 23.632L63.5895 23.568V23.312L64.4215 23.504L64.6135 23.312L64.6775 23.44H64.9335V23.12L64.7415 23.312L64.6775 23.184L64.5495 23.248L64.4215 23.12L63.6535 23.632L63.3335 23.312L63.4615 23.632ZM64.1015 23.568L64.0375 23.632L64.1015 23.568ZM64.3575 23.312V23.184V23.312ZM64.8695 21.776L64.9335 21.648L64.8695 21.776ZM61.2855 21.776V21.648V21.776ZM70.1815 21.008L70.2455 21.648L70.1815 21.008ZM65.3175 19.664L65.2535 20.368L65.3175 19.664ZM65.3815 18.896L65.2535 18.64L65.3815 18.896ZM64.8695 18.384V18.32V18.384ZM65.3815 18.064H65.3175H65.3815ZM65.0615 17.68L65.2535 18.064L65.0615 17.68ZM65.4455 14.288L65.2535 14.544L65.4455 14.288ZM55.9735 13.328H55.8455H55.9735ZM61.6055 14.096L61.4775 14.224V14.672L61.6695 14.864L61.4135 15.632V17.232L61.2855 17.68L61.3495 18.192L61.1575 18.512H61.3495L61.1575 18.96L61.2855 19.024V19.536L61.4775 19.664V21.904L63.3975 21.648L63.4615 21.84L63.5895 21.648L63.6535 21.776L64.0375 21.904H64.6775L64.9975 21.328L64.8695 21.456L65.2535 20.944L65.0615 21.2L64.9975 21.008L65.1895 20.88V19.92L65.3175 19.856L65.1895 19.728L65.2535 19.216L65.4455 19.664L65.2535 19.728L65.3815 19.024L65.0615 18.832L65.3175 18.32L64.9975 18.384L65.2535 17.872L64.9975 18.064L64.8695 17.936L65.1895 17.296L65.3815 16.528V14.992L65.3175 15.056V14.096L65.4455 13.904L65.2535 13.712L65.3815 13.584V13.328L65.2535 13.456L65.4455 12.944L65.2535 13.072L65.1895 12.624L65.3175 11.6L65.1255 11.408L65.3815 11.344L65.2535 11.024L65.3815 10.448V8.016L65.0615 7.952L61.6055 8.336L61.4135 8.528V10.448L61.2855 10.576L61.4775 10.96L61.3495 11.088L61.4775 11.472V12.624L61.6055 14.096ZM70.5015 12.112V12.688V12.112ZM65.1255 11.728L65.2535 11.664L65.1255 11.728ZM65.3815 10.768V11.408V10.768ZM55.8455 9.936L55.9735 9.808L55.8455 9.936ZM55.7175 9.488H55.7815H55.7175ZM61.3495 8.336V8.528V8.336ZM71.0135 4.56L70.8855 4.688L71.0135 4.56ZM70.9495 3.92L71.0135 4.688L70.9495 3.92ZM58.0215 3.856H58.1495H58.0215ZM56.9975 3.792V3.856V3.792ZM57.3815 3.728H57.7015V3.856L58.0855 3.664H58.3415L58.6615 3.472L58.5975 3.152L57.8295 3.344L57.7015 3.216H56.7415L56.4855 3.344L56.9975 3.728L57.0615 3.536L57.3175 3.664L57.1895 3.792L57.3815 3.728ZM59.0455 3.792L59.4295 3.728V3.536L59.6215 3.664V3.216L59.1735 3.664V3.344H58.8535L58.7255 3.728H58.4055L59.0455 3.792ZM59.7495 3.664L59.6855 3.792L59.7495 3.664ZM60.5815 3.536H60.7095H60.5815ZM61.2855 3.472H61.0295H61.2855ZM63.5895 3.216L63.2695 3.152V3.344L63.5895 3.216ZM57.5095 3.472V3.216L57.9575 3.408L57.5095 3.472ZM58.8535 3.536H59.0455H58.8535ZM60.2615 3.472V3.536V3.472ZM57.3175 3.536L57.1895 3.408L57.3175 3.536ZM62.7575 3.408L62.8855 3.216L62.5655 3.344V3.152H61.0295V3.536L61.4775 3.408H62.7575ZM63.2695 3.472L63.0775 3.408L63.2695 3.472ZM60.7735 3.408V3.216H60.3895L60.7735 3.408ZM60.0695 3.344H59.7495H60.0695ZM60.5815 3.344H60.4535H60.5815ZM70.1815 3.152L70.0535 3.344L70.1815 3.152ZM80.951 37.008L79.863 36.624L79.543 36.368L79.095 36.496L78.967 36.368H73.719L74.231 36.304L74.039 34.512L74.231 34.128L74.039 33.872L74.167 33.68L74.039 33.36L74.231 33.232L74.103 33.168L74.231 32.848L74.103 32.976L74.231 32.528H73.911L74.167 32.336H73.911V31.696L73.463 31.568L73.783 31.504L74.039 31.056H74.167V30.416H74.039L73.911 30.672L74.167 30.032L73.911 27.472L74.103 27.408L74.039 27.216L73.591 27.472L73.847 27.216L73.719 26.832L74.103 26.64L73.783 26.576L73.847 26.448L74.039 26.512V26.32L73.783 26.256L74.103 26.128V25.488H73.847L74.039 25.296L74.103 24.848L73.911 24.976L73.783 24.848L74.103 24.656V24.464L73.719 24.08L74.103 23.888V15.376L74.231 15.056V13.712L74.103 13.648L74.359 12.88L74.103 12.56L74.231 12.432V8.784L74.359 8.016L74.167 7.696L74.359 5.968V3.472L74.231 3.408L74.423 2.512L74.743 2.704H78.391L78.199 2.832H79.799L80.055 3.088L79.863 3.536L79.799 4.432L80.055 4.688L79.799 4.88L79.735 5.328H79.863V5.84L79.735 6.032L79.863 6.096L79.799 6.992L80.631 6.8H83.767L84.407 7.056H85.943L87.031 7.184L87.223 7.312L87.671 7.12L87.799 7.44H89.271L89.591 7.696H89.975V7.824H89.591L89.335 8.272V8.784L89.207 9.104V10.768L89.079 11.024V11.984L88.951 12.24L89.207 12.432L89.271 12.624L89.015 12.944V17.36L88.887 17.936L88.375 18L87.415 17.872H85.239L84.727 17.744H83.703L83.319 17.296V16.976L83.703 16.72V16.016L83.959 16.08L84.087 15.888L83.959 14.928L83.831 14.992L83.703 15.632V12.624H80.183V17.36L80.055 17.616V19.024L79.863 19.152L80.119 19.216L79.991 19.728V21.2L79.799 21.328H79.991V21.904L79.735 22.16V24.848L79.543 24.976L79.671 25.104V25.872L79.479 26.768L79.671 26.96V27.472L79.479 27.6H79.671V28.432L79.543 28.816L79.671 28.88L79.735 29.52L79.479 30.032L79.671 30.096L79.543 30.224H79.671V30.544L79.479 30.736L79.671 31.184H82.999L83.063 31.44L83.127 31.248H83.767V31.12L86.007 31.696H88.887L88.759 33.04L88.951 33.168L88.631 34V36.304L88.439 36.688L88.375 36.496H87.031L86.903 36.688L85.943 36.816V36.624L85.687 36.816L83.639 37.008H80.951ZM74.423 36.176L76.151 36.368L74.423 35.728V36.176ZM88.119 32.208L87.735 32.144L87.607 32.656L87.735 32.528H88.055L88.119 32.208ZM87.543 32.336L87.607 32.4L87.543 32.336ZM87.991 32.4V32.336V32.4ZM87.351 32.016L87.543 32.08L87.351 32.016ZM88.759 31.888V32.08V31.888ZM74.103 31.824L74.167 32.08L74.103 31.824ZM74.231 31.44H74.167H74.231ZM80.311 31.248L80.183 31.44L80.311 31.248ZM74.039 30.48L73.847 30.8L74.039 30.48ZM79.415 30.416L79.287 30.48L79.415 30.416ZM74.103 28.368V28.816V28.368ZM73.911 26.256L73.719 25.872L73.911 26.256ZM73.783 25.872V25.296V25.872ZM73.911 24.528L73.783 24.592L73.719 24.464L73.911 24.528ZM74.231 19.728V20.048V19.728ZM88.759 17.168L88.695 17.36L88.759 17.168ZM74.231 16.72V17.36V16.72ZM74.039 14.416L74.103 14.288L74.039 14.416ZM74.231 13.456V14.416V13.456ZM74.231 6.8L74.167 6.544L74.231 6.8ZM74.359 5.392V5.648V5.392ZM78.519 5.072V4.816L78.391 4.688L78.199 5.008L78.519 5.072ZM74.231 4.688H74.359H74.231ZM76.791 3.728L77.495 3.536L77.559 3.344H77.047V3.216L76.727 3.408L76.663 4.048L76.535 3.792L76.791 3.728ZM78.455 3.856L79.031 3.664L78.967 3.408L78.647 3.536L78.199 3.472L78.135 3.664L78.455 3.856ZM78.711 3.792H78.775H78.711ZM76.343 3.536V3.344V3.536ZM78.647 3.408L78.519 3.088L78.391 3.344L78.647 3.408ZM74.359 3.216V3.408V3.216ZM78.775 3.216L78.967 3.408V3.344L78.775 3.216ZM79.543 3.344H79.479H79.543ZM76.983 3.152H76.855H76.983ZM78.007 2.896V2.768H77.815L78.007 2.896ZM75.575 2.832L75.511 2.896L75.575 2.832ZM79.095 2.896V2.384V2.896ZM97.1545 36.496H96.8985H97.1545ZM101.827 36.496L101.763 36.624L101.827 36.496ZM94.5305 36.496L94.5945 36.688L94.5305 36.496ZM103.555 36.496H103.491H103.555ZM102.915 36.432H102.787H102.915ZM92.5465 36.432L92.8665 36.112L92.5465 36.432ZM93.4425 36.112H93.3145H93.4425ZM94.5945 36.112H94.5305H94.5945ZM96.9625 36.112H96.1305H96.9625ZM97.2825 35.344L97.4105 35.408L97.2825 35.344ZM97.4745 32.4L97.4105 32.336L97.2825 32.528L97.4745 32.784L97.4105 33.232L97.2185 33.36L97.4105 34.32H97.5385L97.6665 35.28L97.8585 35.344V35.536H97.6665L97.7945 35.728L97.5385 35.984H97.2185L97.4105 36.048L97.0905 36.432H94.5305L92.9305 36.304L92.3545 36.048L91.9065 33.104V23.312L92.0345 23.12L91.8425 22.928V12.624L92.0345 9.936L91.8425 9.616L92.0345 9.296V9.04L91.8425 9.168L92.0345 8.784V8.528H91.9065V7.376L92.1625 7.184L91.9705 7.12L92.2905 3.024L93.1225 2.896H96.9625L97.1545 2.768L97.4745 3.088L97.4105 3.408L97.5385 3.472L97.2825 3.728L97.4745 3.792V5.712L97.2825 5.84L97.4745 6.224V7.184L97.6025 7.824L97.4745 8.4L97.6025 8.528V10.64L97.4745 10.768L97.6025 10.96L97.7945 12.432L97.6665 13.456H97.7945L97.6665 13.904V14.992L97.9225 16.848L101.251 16.272V15.76H101.123L101.251 15.248L101.507 14.928L101.187 13.456L101.379 13.328L101.251 13.072V12.56H101.059L101.251 12.112L101.379 10.32L101.507 10.128L101.379 9.68L101.507 9.36V7.76L101.763 7.632V3.728L101.891 3.216L101.955 3.344H102.147L102.083 3.024H111.363L111.619 3.152L111.811 4.496L111.939 4.688L111.747 5.008V5.328L111.619 5.392L111.683 6.032L111.491 6.16V7.696L111.619 7.824L111.427 8.016L111.299 9.04L111.171 8.976V8.336L110.851 8.144L107.331 8.72L107.139 9.36V10.832L107.331 11.28L107.203 11.408V12.432L107.331 12.624L107.139 12.752V13.776L106.819 14.288V21.776L107.075 21.904L106.883 22.032L107.139 23.312V26.64L107.01 26.832V31.248H108.035L108.099 31.44L111.683 31.76L111.811 31.888V33.488L111.619 35.536L111.427 35.728V36.432L111.107 36.944H110.531L109.955 36.624H109.378L109.059 36.752H108.099L107.715 36.944L107.075 36.752L105.219 36.944L104.131 36.624H102.723L101.827 36.304V36.112L101.507 35.664V33.232L101.443 33.104V27.792L101.699 26.832L101.571 26.64V25.296L101.699 25.104L101.571 24.976V23.44L101.379 23.312V22.224H97.5385L97.4745 22.8L97.6025 24.08L97.2825 25.488L97.4105 25.616V26.064L97.2825 26.256L97.5385 27.728V29.52L97.4105 30.672L97.4745 31.44V32.4ZM111.299 31.248L111.171 31.44L111.299 31.248ZM97.8585 30.16L97.9225 30.032L97.8585 30.16ZM97.4745 22.16L97.4105 22.992L97.4745 22.16ZM105.347 19.408V19.472V19.408ZM101.187 19.472L100.867 18.896L99.7785 19.28L99.8425 19.6L99.9705 19.472H100.931H101.187ZM105.219 19.28V19.088V19.28ZM106.115 19.344L106.051 19.28L106.179 19.216L105.347 19.024L106.115 19.344ZM106.051 19.152L106.115 18.896L106.499 18.704L105.411 18.384L106.051 18.832H105.347L106.051 19.152ZM106.307 18.384L105.283 17.808L106.307 18.192V18.064L105.283 17.616L105.219 18L106.307 18.384ZM106.243 17.872L106.307 17.616L105.539 17.296L106.243 17.872ZM105.475 17.04V17.168V17.04ZM101.251 15.44V14.864V15.44ZM97.7945 13.072L97.8585 13.328L97.7945 13.072ZM101.955 8.528V9.168V8.528ZM92.0345 8.08L91.9705 8.144L92.0345 8.08ZM101.763 7.632V8.144V7.632ZM92.0345 6.16V6.224V6.16ZM96.0025 4.56L96.1945 3.856L95.1705 3.92V4.56H96.0025ZM110.723 3.536L110.851 3.408L110.723 3.216L109.827 3.408L110.083 3.472L110.723 3.536ZM109.187 3.408H109.315H109.187ZM109.443 3.408L109.699 3.472L109.443 3.408ZM92.1625 3.024L91.9065 3.472L92.0345 2.832L92.1625 3.024ZM111.491 3.024H111.619H111.491ZM101.891 3.024V2.704V3.024ZM111.299 3.024L111.363 2.704L111.299 3.024Z" fill="white"/>
</svg>
