<?xml version="1.0" encoding="UTF-8"?>
<svg id="Layer_2" data-name="Layer 2" xmlns="http://www.w3.org/2000/svg" xmlns:xlink="http://www.w3.org/1999/xlink" viewBox="0 0 340 519.5">
  <defs>
    <style>
      .cls-1 {
        fill: #fff;
      }

      .cls-2 {
        fill: #0053af;
      }

      .cls-3 {
        fill: #c22727;
      }

      .cls-4 {
        fill: #990001;
      }

      .cls-5 {
        fill: #06204f;
      }

      .cls-6 {
        fill: url(#linear-gradient);
      }

      .cls-7 {
        fill: #062a77;
      }
    </style>
    <linearGradient id="linear-gradient" x1="170" y1="519.5" x2="170" y2="20" gradientUnits="userSpaceOnUse">
      <stop offset="0" stop-color="#062a77"/>
      <stop offset=".22" stop-color="#033b8e"/>
      <stop offset=".46" stop-color="#0148a0"/>
      <stop offset=".71" stop-color="#0050ab"/>
      <stop offset="1" stop-color="#0053af"/>
    </linearGradient>
  </defs>
  <g id="Layer_3" data-name="Layer 3">
    <path class="cls-6" d="m20,20c.17,166.5.33,333,.5,499.5h299c.17-166.5.33-333,.5-499.5H20Z"/>
    <rect class="cls-7" x="40" width="260" height="20"/>
    <polygon class="cls-5" points="20 20 0 40 0 500 20.5 519.5 20 20"/>
    <polygon class="cls-5" points="320 20 340 40 340 500 319.5 519.5 320 20"/>
    <rect class="cls-1" x="40" y="40" width="260" height="340"/>
    <polygon class="cls-7" points="20 20 40 40 40 380 169.97 519.5 300 380 300 40 320 20 319.5 519.5 20.5 519.5 20 20"/>
    <rect class="cls-1" x="40.5" y="488.5" width="5" height="31"/>
    <rect class="cls-4" x="54.5" y="488.5" width="5" height="31"/>
    <rect class="cls-1" x="71.5" y="488.5" width="5" height="31"/>
    <rect class="cls-1" x="295.5" y="488.5" width="5" height="31" transform="translate(596 1008) rotate(-180)"/>
    <rect class="cls-4" x="281.5" y="488.5" width="5" height="31" transform="translate(568 1008) rotate(-180)"/>
    <rect class="cls-1" x="264.5" y="488.5" width="5" height="31" transform="translate(534 1008) rotate(-180)"/>
    <rect class="cls-2" x="47.5" y="7.5" width="247" height="5"/>
    <polygon class="cls-7" points="40 40 60 60 280 60 300 40 40 40"/>
    <polygon class="cls-2" points="60 360 40 380 40 40 60 60 60 360"/>
    <polygon class="cls-7" points="300 380 280 360 60 360 40 380 300 380"/>
    <polygon class="cls-2" points="300 40 280 60 280 360 300 380 300 40"/>
    <circle class="cls-1" cx="310" cy="154.5" r="3"/>
    <circle class="cls-3" cx="310.5" cy="168.5" r="3"/>
    <circle class="cls-1" cx="310.5" cy="182.5" r="3"/>
  </g>
</svg>