<?xml version="1.0" encoding="UTF-8"?>
<svg id="Layer_2" data-name="Layer 2" xmlns="http://www.w3.org/2000/svg" xmlns:xlink="http://www.w3.org/1999/xlink" viewBox="0 0 575.26 520">
  <defs>
    <style>
      .cls-1, .cls-2, .cls-3, .cls-4 {
        fill: #fff;
      }

      .cls-5 {
        fill: #0053af;
      }

      .cls-6 {
        fill: #0053ae;
      }

      .cls-2 {
        stroke-width: .75px;
      }

      .cls-2, .cls-3, .cls-4, .cls-7, .cls-8 {
        stroke: #000;
      }

      .cls-2, .cls-4, .cls-7, .cls-8 {
        stroke-miterlimit: 10;
      }

      .cls-9 {
        filter: url(#drop-shadow-1);
      }

      .cls-3 {
        stroke-linejoin: bevel;
      }

      .cls-10 {
        fill: #161616;
      }

      .cls-11 {
        fill: #06204f;
      }

      .cls-7 {
        fill: #28cc00;
      }

      .cls-7, .cls-8 {
        stroke-width: .5px;
      }

      .cls-12 {
        fill: #062a77;
      }

      .cls-8 {
        fill: #990001;
      }
    </style>
    <filter id="drop-shadow-1" filterUnits="userSpaceOnUse">
      <feOffset dx="3" dy="1"/>
      <feGaussianBlur result="blur" stdDeviation="1"/>
      <feFlood flood-color="#000" flood-opacity=".6"/>
      <feComposite in2="blur" operator="in"/>
      <feComposite in="SourceGraphic"/>
    </filter>
  </defs>
  <g id="Layer_4" data-name="Layer 4">
    <g class="cls-9">
      <path class="cls-2" d="m274.34,140.12l14.98-14.98c-4.74-6.24-9.49-12.49-14.23-18.73-.5-8.49-1-16.98-1.5-25.47,11.74-6,23.48-11.99,35.22-17.99l25.46,7.53v-20.26l36.57-18.28,23.37,18.28v-18.28c5.24-4.14,10.49-8.29,15.73-12.43,14.73.25,29.47.5,44.2.75l14.98,14.98,14.98-14.98,2.09,1.26,27.88,16.83v26.86h37.18l23.5,15.73-.75,44.2-12.77,14.2,12.77,15.37v45.34l-29.97,44.95h-89.9l-29.97-14.98c-3.75-10.24-7.49-20.48-11.24-30.72-6.24.25-12.49.5-18.73.75-4.74-4.25-9.49-8.49-14.23-12.74-5.24,4.25-10.49,8.49-15.73,12.74h-29.97l-20.23-20.23-11.26,4.59-28.45-14.33v-29.97Z"/>
      <polyline class="cls-4" points="454.14 94.04 467.26 110.13 486.19 110.15 496.72 125.13"/>
      <polyline class="cls-4" points="356.75 151.07 364.24 132.25 399.55 132.25 420.78 113.7"/>
      <polyline class="cls-3" points="394.21 50.22 418.18 50.22 427.35 65.2"/>
      <polyline class="cls-4" points="424.17 230.02 412.94 199.3 412.94 175.3 428.62 155.1"/>
      <polyline class="cls-3" points="454.38 21.51 469.13 35.23 469.13 51.35 453.11 65.2"/>
      <polyline class="cls-4" points="523.75 139.34 561.24 139.34 574.01 125.13 574.76 80.93"/>
      <polyline class="cls-2" points="497.59 83.18 514.08 65.2 514.08 38.34 486.19 21.51"/>
      <polyline class="cls-2" points="332.62 151.07 314.8 164.09 314.05 179.82 334.27 200.05"/>
      <line class="cls-2" x1="379.22" y1="170.08" x2="379.97" y2="187.31"/>
      <polyline class="cls-3" points="311.8 125.13 289.32 125.13 275.09 106.4 272.54 80.18 308.82 62.95 334.27 70.48 352.62 94.04 383.23 95.17 392.71 113.15"/>
      <polyline class="cls-4" points="461.12 197.87 461.12 173.77 477.59 155.1 508.96 155.1 529.06 170.08 529.06 187.31"/>
    </g>
    <polygon class="cls-12" points="40 20 20 40 20 500 40.5 519.5 500 520 520 500 520 240 500 220 320 220 320 40 300 20 40 20"/>
    <polygon class="cls-1" points="60 240 40 260 40 480 60 500 480 500 500 480 500 260 480 240 60 240"/>
    <polygon class="cls-11" points="40 20 20 20 0 40 0 500 20 520 40.5 519.5 20 500 20 40 40 20"/>
    <polygon class="cls-11" points="300 20 320 20 340 40 340 200 500 200 540 240 540 500 520 520 500 520 520 500 520 240 500 220 320 220 320 40 300 20"/>
    <polygon class="cls-11" points="0 40 40 0 300 0 340 40 320 40 300 20 40 20 20 40 0 40"/>
    <polygon class="cls-1" points="81.5 79.5 61.5 99.5 61.5 139.5 81.5 159.5 121.5 159.5 141.5 139.5 141.5 99.5 121.5 79.5 81.5 79.5"/>
    <path class="cls-10" d="m81.5,93.5s39.5-.5,40,0,0,40,0,40h-40v-40Z"/>
    <polygon class="cls-7" points="84.75 86 68 102.75 68 136.25 84.75 153 118.25 153 135 136.25 135 102.75 118.25 86 84.75 86"/>
    <polygon class="cls-12" points="61.5 99.5 68 102.75 84.75 86 81.5 79.5 61.5 99.5"/>
    <polygon class="cls-5" points="118.25 86 121.5 79.5 81.5 79.5 84.75 86 118.25 86"/>
    <polygon class="cls-12" points="135 102.75 141.5 99.5 121.5 79.5 118.25 86 135 102.75"/>
    <path class="cls-5" d="m141.5,139.5s-6-2.5-6.5-3.25,0-33.5,0-33.5l6.5-3.25v40Z"/>
    <polygon class="cls-12" points="121.5 159.5 118.25 153 135 136.25 141.5 139.5 121.5 159.5"/>
    <polygon class="cls-5" points="81.5 159.5 84.75 153 118.25 153 121.5 159.5 81.5 159.5"/>
    <polygon class="cls-12" points="61.5 139.5 68 136.25 84.75 153 81.5 159.5 61.5 139.5"/>
    <polygon class="cls-5" points="61.5 99.5 68 102.75 68 136.25 61.5 139.5 61.5 99.5"/>
    <polygon class="cls-8" points="220.69 86.66 203.94 103.41 203.94 136.91 220.69 153.66 254.19 153.66 270.94 136.91 270.94 103.41 254.19 86.66 220.69 86.66"/>
    <polygon class="cls-12" points="197.44 100.16 203.94 103.41 220.69 86.66 217.44 80.16 197.44 100.16"/>
    <polygon class="cls-5" points="254.19 86.66 257.44 80.16 217.44 80.16 220.69 86.66 254.19 86.66"/>
    <polygon class="cls-12" points="270.94 103.41 277.44 100.16 257.44 80.16 254.19 86.66 270.94 103.41"/>
    <path class="cls-5" d="m277.44,140.16s-6-2.5-6.5-3.25,0-33.5,0-33.5l6.5-3.25v40Z"/>
    <polygon class="cls-12" points="257.44 160.16 254.19 153.66 270.94 136.91 277.44 140.16 257.44 160.16"/>
    <polygon class="cls-5" points="217.44 160.16 220.69 153.66 254.19 153.66 257.44 160.16 217.44 160.16"/>
    <polygon class="cls-12" points="197.44 140.16 203.94 136.91 220.69 153.66 217.44 160.16 197.44 140.16"/>
    <polygon class="cls-5" points="197.44 100.16 203.94 103.41 203.94 136.91 197.44 140.16 197.44 100.16"/>
    <polygon class="cls-11" points="40 260 57.31 268.04 75.85 249.5 60 240 40 260"/>
    <polygon class="cls-5" points="465.15 249.5 480 240 60 240 75.85 249.5 465.15 249.5"/>
    <polygon class="cls-11" points="483.69 268.04 465.15 249.5 480 240 500 260 483.69 268.04"/>
    <polygon class="cls-5" points="483.69 471.96 483.69 268.04 500 260 500 480 483.69 471.96"/>
    <polygon class="cls-11" points="480 500 465.15 490.5 483.69 471.96 500 480 480 500"/>
    <polygon class="cls-5" points="60 500 75.85 490.5 465.15 490.5 480 500 60 500"/>
    <polygon class="cls-11" points="40 480 57.31 471.96 75.85 490.5 60 500 40 480"/>
    <polygon class="cls-5" points="40 480 57.31 471.96 57.31 268.04 40 260 40 480"/>
    <polygon class="cls-5" points="300 0 300 20 320 40 340 40 300 0"/>
    <polygon class="cls-5" points="40 0 40 20 20 40 0 40 40 0"/>
    <polygon class="cls-5" points="0 500 20 500 40.5 519.5 20 520 0 500"/>
    <polygon class="cls-5" points="520 500 540 500 520 520 500 520 520 500"/>
    <polygon class="cls-5" points="500 200 500 220 520 240 540 240 500 200"/>
    <rect class="cls-6" x="89.5" y="159.5" width="22" height="81"/>
    <rect class="cls-5" x="225.5" y="160.5" width="22" height="79"/>
    <rect class="cls-1" x="95.5" y="168.5" width="10" height="60" rx="4" ry="4"/>
    <rect class="cls-1" x="231.5" y="169.5" width="10" height="60" rx="4" ry="4"/>
  </g>
</svg>