<svg width="272" height="62" viewBox="0 0 272 62" fill="none" xmlns="http://www.w3.org/2000/svg">
<path d="M27.224 60.256L26.936 60.544L27.224 60.256ZM4.088 57.664L4.376 56.992L3.704 56.896V57.28L4.088 57.664ZM4.28 53.824H4.568L4.376 53.536L4.28 53.824ZM5.24 52.864H4.952V53.248L5.24 52.864ZM4.088 53.248H4.568V52.96L4.088 53.248ZM17.432 52.48L17.72 52.288V51.904L17.24 52.192L17.432 52.48ZM2.84 34.72H8.504L7.16 34.624L6.872 34.432H4.088L2.36 34.912L2.072 34.72H2.84ZM3.032 32.416V32.224H2.744L3.032 32.416ZM1.208 32.128V32.224V32.128ZM2.168 28.288L2.36 28L2.744 27.904H2.168V28.288ZM11.288 18.88V20.608L11 20.704V25.504L12.248 25.888V26.08L12.632 25.792L13.496 26.176L13.88 25.888L15.128 26.08L17.912 25.888L18.296 25.696V25.408L18.584 25.888H22.328L24.248 25.696L25.688 25.888L26.168 25.792L26.552 26.752L27.128 27.04V29.344L26.936 29.536V30.208L27.224 30.976V31.744L27.128 31.552L26.936 31.744V32.512L27.128 32.704V34.912L27.608 35.104L26.936 35.392V37.216L26.648 40.096L26.936 40.384V42.88L27.416 43.072L26.936 43.84V51.328L27.128 51.616L26.84 53.536L27.128 54.976L26.84 56.32L27.128 56.416L26.84 56.608V58.816L27.128 58.912L26.936 59.008V59.584L27.128 59.872L26.456 60.16L26.168 60.544L24.056 60.16L23.384 60.448L18.68 59.872L18.296 60.16L17.72 59.968L17.336 60.448H11.288L11.096 60.256H10.136L8.984 59.968H6.584L6.776 60.16L6.296 59.968H2.072L0.824 59.488L0.728 58.048L0.92 56.704V53.44L1.208 53.152V51.328L1.688 50.944L3.032 50.56L4.856 51.04L6.2 50.944L6.488 51.232L6.776 51.04L9.464 51.328L9.944 50.944L10.136 51.232H13.208L14.072 51.04H17.336V47.392L17.048 46.72L17.24 45.76V43.36L17.432 43.072V35.68L17.048 35.392L16.952 35.584L16.472 35.392L15.512 35.584L14.84 35.296H10.136L9.944 35.104H2.744L1.784 35.296V34.432L1.208 34.144L1.4 34.048L0.92 33.952L0.824 33.184L1.112 32.896L0.824 32.8L0.92 31.936L1.496 31.744H1.112V29.056L0.92 28.864V28.096L1.208 28.288L0.728 26.752L1.208 26.08V19.744L1.496 19.36L1.208 19.456L1.112 18.784L1.496 18.4L1.112 18.208L1.496 18.112L1.208 17.536L1.4 17.44L1.208 16.96L1.496 16.288L1.4 15.904L1.688 15.616L1.4 15.52V14.272L1.208 13.984L1.496 13.696V13.408L1.688 13.312L1.4 13.024L1.496 11.776L1.688 11.68L1.496 11.488V10.72L1.208 10.24L1.688 9.856H1.496V9.472L1.688 9.27999L1.496 8.608V4.192L1.688 4.096L1.496 3.712V2.752L1.784 2.17599L0.728 1.984L0.824 2.17599L2.648 1.984L1.88 1.888L1.688 1.6H6.872L9.368 1.31199L9.656 1.504L9.944 1.216H10.328L10.424 1.504H15.992L18.2 1.216L19.16 1.504H24.248L25.688 1.31199L25.88 1.504L28.088 1.984L27.608 2.56L27.416 3.424L27.224 3.51999L27.512 3.712L27.224 4.384V7.264L26.936 7.36L27.224 7.648L27.416 9.184L27.224 9.27999L27.128 9.856L27.608 10.528L26.36 11.296L26.072 11.68H23L22.712 11.488L16.952 12.16L16.472 12.352L16.184 12.16H13.496L12.824 12.352L12.632 12.16H11.864V13.984L11.672 14.944L11.864 16L11.672 16.96V18.4L11.288 18.88ZM2.456 17.152H2.744H2.456ZM2.648 16.864L3.032 16.576L2.84 16.288H2.648V16.864ZM2.648 6.4V6.304V6.784V6.4ZM3.032 5.824L2.84 5.632L3.128 5.344V5.056L2.456 4.86399V5.152L2.744 5.344L2.648 5.632L3.032 5.824ZM5.912 2.944H5.624H5.912ZM5.048 2.944L6.776 2.752L6.968 2.56L7.544 2.464L6.584 2.272H4.664V2.56H5.048V2.944ZM6.968 2.848L6.872 2.944L6.968 2.848ZM3.896 2.56L3.992 2.464H2.168L2.744 2.56H3.896ZM32.246 56.128L31.286 55.936L31.862 55.648L31.574 55.264L31.766 54.592L31.67 54.112L31.862 52.576V48.928L31.382 48.832L31.862 48.544V43.648L32.054 43.36L32.15 41.824L32.246 43.072L32.534 43.168L32.438 42.784L33.11 42.496H32.822L32.438 41.536L32.15 41.344V38.752L32.438 40.096L32.15 40.96H32.63L33.014 40.672V40.288L32.726 40.096L33.014 39.808L32.438 38.272V37.504L32.726 37.408H32.246L32.15 38.272L32.054 36.736L31.862 36.64L32.15 35.584L32.246 36.064L32.534 36.256L32.438 36.64H32.63V36.16L32.438 35.872V35.296H32.054V34.528H32.246L32.534 34.048L32.246 33.952L32.726 33.568L33.398 33.664V33.856H34.646L34.934 33.664H35.99L36.086 33.856H36.566L36.662 33.568L37.142 33.472V33.568L37.334 33.472L37.43 33.664L37.814 33.376L38.198 33.568H39.062L39.35 33.376L39.926 34.24L39.734 34.336V51.52L39.542 52.576L39.734 54.688L39.638 55.264L40.118 55.744L39.542 56.128H32.246ZM36.47 56.608L36.566 56.128L36.47 56.608ZM31.19 48.64V48.832V48.64ZM32.726 48.736L33.206 47.968L32.15 48.16L32.726 48.736ZM32.15 47.68L32.726 46.624H32.246L32.15 47.68ZM32.246 41.152H32.15H32.246ZM32.918 41.056V41.152V41.056ZM32.054 38.464H32.15H32.054ZM32.726 37.6L32.63 37.792L32.726 37.6ZM32.246 36.928L32.534 37.024L32.246 36.928ZM32.246 34.816L32.534 34.912L32.246 34.816ZM35.222 33.952L35.126 34.048L35.222 33.952ZM32.054 19.456V8.128L32.246 7.84H32.054V6.496L32.246 6.688L32.054 6.20799V5.536H32.246L31.862 5.248L33.878 4.768H38.198L38.774 4.48L40.502 4.672V10.336L40.214 10.624H40.502L40.214 11.968L40.502 12.352L40.118 12.832L40.214 14.08L40.406 14.176L40.214 15.04L40.406 15.232L40.214 15.328L40.598 16.384V17.056L40.214 17.632L40.406 17.536V19.36L39.542 19.84L32.054 19.456ZM32.246 15.712L32.054 15.904L32.246 15.712ZM32.438 14.848H32.246H32.438ZM32.438 14.56L32.822 13.984L32.246 14.176L32.438 14.56ZM32.246 13.696H32.918L32.822 13.6L33.206 13.024L32.246 12.64V13.696ZM32.246 12.352L33.11 11.488L32.918 11.392L33.11 10.528L32.246 10.912V11.68L32.438 12.16L32.246 11.872V12.352ZM32.246 10.048V10.144V10.048ZM34.934 4.86399L35.222 4.768L34.934 4.86399ZM39.734 4.86399H40.118H39.734ZM51.1513 55.072V55.648V55.072ZM51.7273 54.592L52.1113 54.496V54.208L51.9193 54.112V53.44L51.7273 53.248V54.88V54.208V54.592ZM51.9193 53.152L51.7273 52.768L51.5353 53.056L51.9193 53.152ZM51.9193 52.48H51.8233H51.9193ZM51.9193 52.288H51.8233H51.9193ZM83.5993 45.568L83.4073 45.952L83.5993 45.568ZM52.8793 43.456L52.9753 43.84L52.8793 43.456ZM52.9753 42.688H53.2633H52.9753ZM52.9753 40.384L53.0713 40.768L52.9753 40.384ZM83.7913 40.384L83.6953 40.768L83.7913 40.384ZM53.2633 38.176H52.9753H53.2633ZM53.0713 37.6L52.9753 37.696L53.0713 37.6ZM52.9753 35.584V35.776V35.584ZM52.5913 35.584L52.8793 35.488L52.5913 35.2V35.584ZM53.0713 35.2H53.2633H53.0713ZM52.8793 34.72V34.816V34.72ZM53.3593 33.952V34.048V33.952ZM52.9753 33.088V32.896H52.5913L52.9753 33.088ZM52.5913 32.416H52.8793H52.5913ZM58.8313 31.744L59.2153 32.032V31.456L58.8313 31.744ZM45.3913 31.456L45.1992 31.744L45.3913 31.456ZM45.8713 31.264V30.976L45.1992 30.496V30.976L45.8713 31.264ZM52.5913 31.072V31.264V31.072ZM83.3113 31.264H83.2153H83.3113ZM59.2153 30.688L59.3113 31.264L59.2153 30.688ZM52.8793 30.688H52.6873H52.8793ZM45.3913 30.112L45.4873 30.208L45.3913 30.112ZM46.0633 29.92H45.8713H46.0633ZM53.0713 29.44V29.92V29.44ZM45.6793 27.904H45.1033L45.3913 28L45.1992 28.288L45.6793 27.904ZM46.0633 28.288H45.8713H46.0633ZM59.4073 27.328V28.288V27.328ZM59.5993 26.944H59.4073H59.5993ZM52.8793 26.56L52.9753 26.944L52.8793 26.56ZM52.5913 26.176V26.56V26.176ZM59.3113 25.984H59.2153H59.3113ZM59.5993 25.696H59.4073H59.5993ZM52.9753 24.64H53.0713H52.9753ZM52.8793 22.816L52.9753 24.256L52.8793 22.816ZM52.8793 22.24H52.9753H52.8793ZM59.2153 20.8H59.0233H59.2153ZM59.5993 19.264L59.3113 19.36L59.5993 19.264ZM74.7673 19.072L74.6713 19.36L74.7673 19.072ZM53.6473 18.592L53.3593 19.36L53.6473 18.592ZM52.9753 18.112L52.8793 18.208L52.9753 18.112ZM59.2153 17.536V17.728V17.536ZM59.5993 16.384V16.576V16.384ZM67.4713 32.512V33.184L67.1833 32.8H65.2633L64.6873 33.088H62.1913L59.9833 32.704L59.6953 32.416L58.8313 32.128L58.6393 31.84V31.36H59.2153L59.3113 31.072L58.9273 30.976L59.0233 29.92L58.8313 29.344L58.9273 28.384L59.4073 28V27.712L59.2153 27.904L59.0233 27.712L59.2153 27.616L59.0233 27.52L59.2153 27.328L58.9273 27.232V25.408L59.3113 25.312L59.0233 24.928L59.2153 24.832L59.4073 24.16L59.2153 23.872L59.4073 23.776L59.2153 23.488L59.5993 23.392L59.0233 22.816L59.5993 22.72L59.2153 22.24V21.472H59.5993V20.32L59.2153 19.84V19.264L59.0233 19.072L59.4073 18.88V18.592L59.2153 18.688L59.3113 17.824L59.5993 17.92V17.344H59.4073L59.5993 17.056L59.3113 17.152V16.192L59.5993 15.904L59.4073 15.616L59.5993 15.328L59.4073 14.944L59.5993 14.848L59.4073 14.56H59.5993V14.176L59.4073 14.08L59.0233 12.544L59.4073 11.2L59.0233 9.856L58.0633 9.472H55.1833L55.0873 9.664L54.4153 9.952V9.472H53.9353L53.2633 9.952L53.4553 10.624L53.2633 10.72L53.4553 11.68L53.2633 12.064L52.8793 12.16L53.6473 12.256L53.4553 12.64H53.2633L53.3593 12.448L52.6873 13.216H52.9753L53.0713 12.928L53.4553 13.024V13.216L52.8793 13.408L53.3593 13.6V13.792H52.5913L53.2633 14.08L53.3593 14.368L52.6873 14.56V15.232L52.9753 14.944L53.0713 15.616L52.8793 15.808L53.0713 15.904L52.6873 16V16.192H53.0713L53.2633 17.056H53.0713V17.536L53.3593 18.112L52.9753 19.264H53.3593V19.456H52.8793V19.648L53.4553 19.84L53.0713 20.032L53.3593 20.128L52.8793 20.512L53.4553 20.704L52.9753 21.184L53.2633 23.008L52.9753 23.2L53.0713 23.392L52.6873 23.776L52.8793 24.448L53.1673 24.16L52.9753 26.368L53.2633 26.464V26.848L52.6873 27.328L52.9753 27.712L53.0713 27.232H53.2633V28L52.6873 27.904L52.4953 28.096H52.8793V28.288H53.2633V29.056L52.8793 28.768V29.152L52.5913 29.056L52.9753 30.112L52.6873 30.304L53.2633 30.592L53.3593 31.36L53.0713 31.456L53.7433 31.84V32.128L53.4553 32.512L53.6473 32.896L52.9753 33.568L52.5913 33.664V33.952H53.0713V34.24H53.4553L53.0713 34.72H53.4553L53.2633 35.008L53.3593 36.544L52.6873 35.968L52.5913 36.352L52.9753 37.024L52.5913 37.312V38.752L53.3593 38.464L53.4553 38.752L52.5913 38.944V39.232L53.6473 39.52L53.0713 40.096L52.5913 40V41.152L52.8793 41.44L53.0713 41.056L52.9753 41.92L52.8793 41.728L52.4953 42.112L52.6873 42.208V44.8L52.4953 45.28L52.8793 45.472L52.4953 45.664L52.6873 46.816L52.4953 47.104V47.584L52.6873 47.776V49.024L52.4953 49.12L52.6873 49.312V55.072L52.4953 55.36V55.84H52.2073L51.9193 55.456L51.4393 55.648L45.0073 55.072L45.1992 55.744V55.648L44.8153 55.84L44.0473 55.648V55.456L44.3353 55.264L44.2393 53.728L44.0473 53.536L44.2393 53.152L44.0473 53.056L44.2393 52.768V51.712L43.9513 51.328L44.2393 51.136V47.392L44.0473 44.608L44.3353 44.224V16.576L44.0473 14.176L44.3353 11.68V5.824L44.6233 5.536L44.3353 5.344L44.6233 5.056L44.3353 4.576L44.4313 4.192L44.2393 3.424L44.6233 2.56L44.4313 2.368V1.792L44.6233 1.696L44.3353 1.31199L44.0473 1.6L43.9513 1.31199L44.2393 1.024L44.4313 0.159998L44.7193 0.255997L44.8153 0.543999H46.2553L46.5433 0.159998L46.9273 0.543999L46.8313 0.639997L47.3113 0.447994L48.3672 0.639997L48.1753 0.543999L48.4633 0.447994L48.5593 0.159998L48.7513 0.447994L48.8473 0.255997L48.9433 0.543999L50.2873 0.255997L50.3833 0.447994L51.0553 0.255997L52.6873 0.447994L52.9753 0.255997L53.3593 0.447994V0.639997H53.6473L53.7433 0.255997L54.7032 0.639997H55.5673L55.6633 1.024L55.9513 0.639997L56.4313 1.216L57.1033 1.024H59.7913L59.9833 0.639997L60.1753 1.024L63.0553 0.831995H67.5673L67.6633 0.639997L67.9513 1.024H75.1513L75.3433 0.447994L75.7273 1.216H82.3513L82.9273 0.639997L83.2153 0.927999L83.4073 0.831995L83.2153 1.216L84.1753 1.408L83.3113 2.08L83.5993 2.848L83.3113 3.232L83.5993 3.904L83.4073 4.192L83.5993 4.288V4.672L83.4073 4.768L83.7913 5.056L83.5993 5.344L83.3113 5.152L83.2153 5.344L83.5993 5.536V5.72799H83.4073L83.5993 5.92L83.4073 6.112V6.592L83.6953 7.07199L83.4073 7.36L83.5993 7.648V8.512L83.4073 8.896L83.6953 9.27999L83.3113 9.664H83.5993L83.4073 9.952V10.624L83.5993 10.816L83.4073 11.008L83.3113 12.448L83.0233 12.928V13.408L83.2153 13.6L83.0233 14.464L83.2153 14.752V16.288L83.0233 16.576L83.6953 16.384L83.9833 16.672L83.4073 16.96V21.28L83.5993 21.568L83.3113 21.664L83.5993 21.856L83.3113 22.432V24.256L83.6953 24.544L83.3113 24.832V26.464L83.5993 27.712L83.3113 28.672V29.92L83.5993 31.84L83.4073 32.224V34.24L83.5993 34.336L83.4073 35.872L83.5993 36.64L83.3113 38.56L83.5993 38.752L83.4073 38.944L83.6953 39.232V39.616L83.9833 39.904L83.3113 40.096V45.28L83.0233 45.568L83.3113 45.952L83.2153 47.008L83.0233 47.2V48.352L83.3113 48.256L83.0233 49.024V49.984L83.3113 50.08L83.0233 52.384L83.2153 52.768L82.9273 53.056L83.2153 54.496L83.5993 54.88L82.9273 55.072L82.6393 55.456H82.2553L81.7753 55.072L81.5833 55.456L81.3913 55.264H78.0313L77.4553 55.456L77.0713 55.36L76.4953 55.648L76.3033 55.456L75.3433 55.648L75.0553 55.264L73.9033 54.88L74.3833 54.496L73.9993 54.208L74.2873 54.112L74.0953 53.152L74.2873 53.056L73.9993 51.904L74.2873 50.848L74.0953 50.464V39.904L74.2873 39.136L74.0953 38.848V37.6L74.3833 36.64V25.792L74.5753 25.408L74.2873 24.544H74.0953L74.6713 23.776L74.2873 23.584V18.496L74.0953 18.304L74.2873 18.208V16.576L74.5753 15.328V13.024L74.9593 10.624L74.5753 9.952H68.0473L67.8553 11.392V16.576H67.6633L67.8553 17.152V32.032L67.9513 31.744L67.4713 32.512ZM53.6473 16.192L53.4553 16.576L53.6473 16.192ZM53.4553 15.136H53.3593H53.4553ZM53.6473 14.464H53.4553H53.6473ZM52.9753 12.448V12.544V12.448ZM58.9273 10.624H58.8313H58.9273ZM57.0073 9.27999H56.7193H57.0073ZM46.6393 5.824L46.4473 5.72799L46.7353 5.536L46.3513 5.056L45.0073 5.152L45.1992 5.344V5.824H46.6393ZM45.5833 5.536L47.0233 3.808L44.8153 4L45.9673 4.768L45.5833 5.536ZM46.3513 4.192V4.288V4.192ZM83.5993 2.08V4.288V2.08ZM44.8153 1.792V1.6V1.792ZM56.6233 2.08L56.7193 1.6L54.3193 1.792L56.6233 2.08ZM64.8793 1.792L66.2233 2.08L64.8793 1.792ZM65.8393 1.792H65.6473H65.8393ZM53.9353 1.696L53.6473 1.792L53.9353 1.696ZM64.5913 1.696L64.4953 1.792L64.5913 1.696ZM66.3193 1.696L66.1273 1.792L66.3193 1.696ZM44.8153 1.408L46.5433 1.792L45.1992 1.216L44.8153 1.408ZM49.9993 1.216H50.5753L50.7673 1.024H49.1353L49.9993 1.216ZM66.5113 1.024L66.1273 1.216L66.5113 1.024ZM54.0312 0.831995L53.7433 1.216L54.0312 0.831995ZM49.9993 0.543999H49.8073H49.9993ZM59.9833 0.543999L59.7913 0.0639992L59.9833 0.543999ZM99.92 55.744L99.824 55.36H99.536L99.632 55.744L99.44 56.032L99.92 55.744ZM97.328 56.032L98 55.936L97.712 55.456L97.424 55.744L97.232 55.456H96.752L96.656 55.648L97.328 56.032ZM98.672 56.032L98.864 55.456H98.576L98.672 56.032ZM101.072 55.072L102.128 54.784L101.84 54.688V54.208L102.416 54.784L102.704 54.688V54.112L103.376 53.824L103.76 53.44H102.992L102.704 52.864L101.84 52.576L100.592 52.864L100.208 52.192L99.824 52.864L100.112 53.824L98.96 53.44V53.824L98.576 54.016L98.96 54.4H99.824L99.92 54.688H100.208V54.208H100.784L100.592 54.4L100.88 54.496V54.784L101.072 55.072ZM89.744 53.44H89.36L89.456 53.152H88.4V53.44H88.688L89.072 53.824L89.744 53.44ZM98.192 54.688L98.384 54.4V53.44L97.712 53.536L98.192 53.728H97.328L97.04 54.208H98L98.192 54.688ZM103.088 54.496H103.28V54.112H103.088V54.496ZM98.576 53.248L99.536 52.96L98.672 52.288H98.384L98.288 52.768L97.424 52.48L98 53.152H98.288L98.576 53.248ZM88.784 52.96H89.168L89.744 52.576L89.456 51.904H88.688L88.784 51.808H88.496V52L89.072 52.576L88.784 52.96ZM88.4 52.864H88.784L88.688 52.576L88.4 52.864ZM102.992 52.576L103.088 52.864L103.28 52.768L102.992 52.576ZM101.168 52.576L101.36 52.48L100.88 52.288L100.784 52.48L101.168 52.576ZM97.424 52.192H97.712L97.616 51.904L97.424 52.192ZM95.312 51.232V51.328L95.408 51.04L95.792 50.944V49.408L95.984 48.928L95.408 46.72L95.12 48.448V50.848L95.312 51.232ZM88.496 50.944L88.784 51.04L88.976 50.848V49.984L89.168 49.888L88.976 49.6L89.072 48.448L88.688 47.968L89.168 47.68V47.488H88.4L88.208 47.968L88.496 48.16V50.272V50.944ZM88.208 45.952L88.112 46.24V44.8L88.208 45.952ZM95.792 41.344L95.696 40.768L95.408 40.384L95.792 39.904V39.136H95.504V38.848L95.792 38.56V37.024H95.408L95.312 37.312L95.504 37.504L95.024 39.424L94.16 38.56L94.064 38.944L94.544 39.808L94.832 39.52L95.312 39.712L95.024 39.808L94.544 40.672L94.736 41.152H95.12L95.792 41.344ZM108.464 38.848H108.752L108.368 38.56L108.464 38.848ZM94.064 38.272L94.16 37.984H93.776L94.064 38.272ZM94.544 38.272L95.12 37.888L94.544 37.792V38.272ZM90.128 37.6L89.744 37.888V37.6H90.128ZM88.208 36.544L88.112 37.6V35.584L88.208 36.544ZM108.656 37.216L108.464 36.544L108.656 37.216ZM108.464 36.928H108.656V36.544L108.848 36.352L108.752 36.256L108.08 36.544L108.368 36.64L108.464 36.928ZM90.032 34.432V33.952L89.648 34.336L90.032 34.432ZM95.12 34.336H95.312V33.472H95.12L95.024 33.952L95.12 34.336ZM90.416 33.376L90.128 33.088L90.032 33.184L90.416 33.376ZM95.12 33.376V33.088H94.832L95.12 33.376ZM95.984 32.8V32.224H95.696L95.312 32.512L95.696 32.704L95.984 32.8ZM89.072 31.168L88.784 30.88L89.456 30.784V31.744H89.168L89.456 32.512L89.168 32.8L89.072 32.224V31.168ZM94.352 31.456L94.832 30.88H94.448L94.352 31.264L93.584 30.88V31.264L94.352 31.456ZM94.064 30.88L94.544 30.496L94.352 30.304V29.824L93.584 29.632L93.488 29.92H94.064V30.88ZM88.784 30.016L89.36 29.824L89.456 29.536H89.36L89.456 30.496H89.168V30.304L88.784 30.016ZM97.424 29.92L97.616 30.016L97.232 30.208L97.424 29.92ZM88.208 29.632L88.112 29.92V29.056L88.208 29.632ZM89.36 29.056L89.456 29.248H89.072V28.672L89.456 28.384L88.976 28.576V28.96L89.36 29.056ZM89.36 27.904L88.976 28.096V27.712L89.36 27.904ZM96.752 27.136V27.424L97.232 27.904L96.752 28.096L97.04 28.384L96.656 28.576L97.232 28.96L97.328 29.344L96.752 29.824L96.656 30.208L96.464 30.304L96.944 30.784L96.656 30.976L96.752 31.552H97.328L96.944 32.512L97.328 33.184L96.944 33.664L97.232 34.72L97.04 35.104L96.944 36.544L97.328 36.64V37.024L96.944 37.216L97.232 37.504L96.944 37.792V38.464H96.656L96.752 38.272L96.464 38.176V39.52L96.656 39.904L96.464 40.384L96.656 40.768L96.464 41.152L96.944 41.632L96.752 41.728L97.04 42.016L96.944 42.112L96.464 41.92V42.688H97.04L97.424 43.072L97.232 43.648H97.04L96.944 43.36L96.464 43.84L97.04 44.32L96.752 44.608L96.656 45.28L97.04 45.76L96.656 45.856L97.232 46.24L96.944 46.528L96.752 46.432L96.464 46.816L97.04 47.392L96.464 47.488V48.448H96.752V48.064H97.04V49.024L96.752 49.312L96.944 49.6L96.464 49.888V50.272L96.944 50.368V50.656L100.496 51.232L102.992 51.04L103.28 49.984V43.936L103.088 43.264L103.376 41.728L103.088 41.344L103.376 40.768V36.256L103.568 35.968V35.104L102.512 35.008L103.568 34.624L104.048 29.824L103.76 29.536L103.952 29.344L103.76 29.248L104.048 26.848V21.664L103.76 21.088V20.128L104.048 19.84L103.664 18.4L104.336 17.92V6.592L104.912 6.688L105.008 6.112L104.72 6.016L104.912 5.824L104.72 5.632L104.528 6.304H104.336V5.056L104.528 4.672L104.72 5.056L105.008 4.48L106.256 3.232L105.296 3.712V3.904H104.912L105.008 3.424L104.336 3.232V2.464H104.912L105.008 1.984H105.968L106.64 2.17599L106.544 2.464L107.792 2.272L107.888 1.984L108.08 2.56L108.368 1.984L108.752 2.17599L108.464 2.272V2.464L111.92 2.752L112.784 2.272L113.552 2.752L113.744 3.51999V4.672L113.456 5.056V8.224L113.264 8.32L113.456 8.512L113.264 9.76L113.84 10.144L113.456 10.528L113.168 11.2V14.368L112.88 14.56L113.168 15.232L112.88 15.808V31.936L113.168 32.224V34.72L113.456 35.104V36.064L113.168 36.256L113.552 36.352V37.984L113.264 38.944L113.552 39.424L113.456 39.904L113.744 40.384L113.552 40.768V42.688L114.224 43.072L113.456 43.552V44.608L113.264 44.992V51.328L112.976 51.52L112.784 53.728V59.296L113.168 59.488L112.784 59.872L112.304 60.832H111.248L110.672 61.12H106.16L104.528 60.736H102.512L99.152 59.968H96.656L96.368 60.448L95.792 59.776H88.016L87.824 59.2V54.208L88.016 51.904L87.824 51.328L88.112 51.04L87.824 49.888L88.016 48.448L87.824 48.352L88.016 48.064V46.528H88.208V47.2H88.976L89.168 45.856L88.784 45.568L88.976 44.992L89.168 45.28H89.36V44.896L88.976 44.8L89.168 44.512L88.976 44.224L89.072 43.648L89.168 44.224L89.36 43.552H88.688L88.208 43.936L88.112 43.84L88.4 43.552L88.208 43.264L88.688 42.4V42.88L89.744 41.92L89.456 41.632V41.152H89.648L89.744 41.44L89.648 40.96L90.128 40.48V40.192L89.648 40.672L89.936 39.808L89.648 39.712L89.744 39.52H89.168L89.456 39.136L89.936 39.232L90.032 39.424H90.32L90.128 38.944L90.416 38.848L89.936 38.272L90.704 37.504V37.216L90.32 36.928L89.648 36.832V36.544L89.168 36.256L88.976 35.392L88.496 35.296L88.208 34.912L88.496 34.72L89.36 34.624V34.048L88.784 33.952L89.072 33.664L89.456 32.704V33.088L89.84 32.704L90.032 32.896L90.128 32.224L89.648 32.128L90.128 31.456V31.168L89.744 31.264V30.976L90.32 30.784V30.304H90.128V30.592H89.648L90.128 30.016L89.648 29.824H90.32V29.248H89.648V28.96L90.608 28.864L90.032 28.096H89.648L90.992 27.616V27.328L90.224 27.424L90.416 27.136H89.744L89.456 27.424L88.784 27.328V27.04H88.4L88.112 26.752L89.072 26.368L90.608 26.464L90.224 26.368L90.608 25.888L90.224 25.696V25.504L90.896 25.696V25.216L90.128 24.736L90.704 24.16L89.936 23.872L90.608 23.488L90.224 23.008L90.608 22.624L90.224 22.816V22.336H89.648L89.36 22.816L88.976 22.336L89.36 22.24L88.976 21.856L89.168 21.568L90.032 21.28L89.648 21.856H89.36L89.456 22.24L89.936 22.528V22.048L90.896 21.568L90.32 21.376L90.608 21.088V20.032L90.896 19.648L90.32 19.84V20.32L89.936 20.416H90.32L90.224 20.608L89.648 20.704L88.496 21.376L89.168 20.608V20.32L88.784 20.128V19.744L89.072 19.456H89.456V20.032L89.936 19.648V19.84L90.32 19.648L89.168 18.88L88.4 18.784L88.208 20.992L88.4 21.376L88.112 24.16V18.784L87.728 18.688L88.688 18.4L88.208 18.208V13.6L88.4 15.232V17.92H88.688L88.976 16.864L89.072 18.208H89.648L89.36 18.112V17.92L89.936 18.112L89.744 17.536L90.224 16.96L89.936 17.152L89.744 16.48L89.168 16.864L88.976 16.192H89.648L89.456 16L89.744 15.808L90.224 16.192L89.648 15.616H90.032L89.648 15.328L89.936 14.656L89.552 14.272L89.936 13.696H89.744L89.936 13.408L90.896 13.024L90.032 12.736L89.936 13.12H89.552L89.744 13.024L89.552 12.736L89.744 12.064L90.032 11.776L89.936 10.528V10.912L88.688 10.816L88.976 10.72L88.016 10.24L88.688 5.824H93.584L94.064 6.112L94.352 5.44L94.16 5.72799L94.352 6.016L94.064 6.4L94.736 7.07199V7.552L94.832 6.976L94.448 6.304L94.832 4.86399H94.544V4.48L94.352 4.384V3.904H94.064L94.736 3.712V3.424H94.544L94.352 3.712L94.064 3.51999L92.624 4.192V3.232L92.336 3.136L92.144 5.632L88.976 2.848V2.272L88.496 2.17599V1.984L89.936 1.6H93.2L94.16 1.888H98.192V2.272L97.712 2.944L97.424 2.56L97.232 3.136L96.752 2.848L97.232 4.672L96.752 4.768L97.04 5.056L96.944 5.44H96.656L96.944 6.016L97.232 6.112L96.752 6.592L97.232 6.784L96.656 6.688L97.232 7.07199L97.328 8.032L96.944 8.608L97.232 8.8V9.472L97.328 9.27999H97.616V9.856L97.904 10.24L97.712 10.432L97.616 11.392H97.04V11.776H97.616V14.272L97.424 13.984V12.832H97.232L97.328 13.696L97.04 14.368L97.328 14.656L97.232 15.328H97.424L97.616 15.04V15.52L97.424 15.616L97.904 16.288L97.616 16.576L97.712 18.112L98.384 18.4L97.904 18.784L97.616 19.84L97.424 20.032L97.712 20.128L97.616 20.32L97.904 20.608V21.088H96.944V21.28L97.232 21.376L97.04 21.952L97.616 22.24L97.232 22.336L96.944 23.872H97.712L96.944 24.256V24.928L97.232 24.448L97.328 24.928L96.752 26.752V27.136ZM88.208 25.216V25.792L88.4 25.888L88.112 26.08V24.928L88.208 25.216ZM88.688 25.12L89.072 24.928L89.456 24.448L89.648 24.832L89.456 25.12L89.072 25.216L90.032 25.888H89.36L89.072 25.504L88.688 25.12ZM88.976 23.584L89.648 22.816L89.456 23.776L89.168 23.968L89.36 24.16H88.976L89.072 23.872L88.976 23.584ZM111.248 23.872L110.96 23.584L110.672 23.776L111.248 23.872ZM111.536 23.584L111.632 23.296H111.344L111.536 23.584ZM91.568 23.488L91.856 23.584L90.8 22.816L91.568 23.488ZM97.616 23.2L97.424 22.816L97.712 22.336L97.904 23.488L97.328 23.296L97.616 23.2ZM111.344 22.624L111.92 22.912L112.016 21.856H111.728L111.632 22.24L111.056 22.336L111.344 22.624ZM92.144 21.952L92.432 21.856L92.72 22.624L92.432 21.664L92.144 21.952ZM97.616 21.568L97.712 21.952L97.616 21.568ZM90.224 20.704H90.896L91.088 20.416L90.608 20.32L90.512 20.128H90.224V20.704ZM96.944 16.576L96.656 16.288V16.48L96.944 16.576ZM97.04 16.192H97.232V15.904L97.04 15.808V16.192ZM107.408 14.656L107.12 14.944L107.408 15.328V14.656ZM106.832 14.944V14.656H106.64L106.832 14.944ZM107.504 14.56L107.408 13.984L106.64 13.888L107.408 13.408L106.64 13.312L106.544 14.56H107.504ZM88.016 11.392L88.112 10.72L88.496 11.104L88.208 12.64L88.496 12.448H88.976L89.168 12.832L89.072 13.024H88.784L88.976 12.832L88.688 12.64L88.208 12.832V13.312L88.112 12.352L88.016 11.392ZM90.992 12.736V12.448L90.704 12.64L90.992 12.736ZM89.648 12.448L89.552 12.736L89.648 12.448ZM89.36 11.68L89.456 11.776L89.072 12.16V11.872L89.36 11.68ZM90.992 11.872L90.896 12.16L90.992 11.872ZM110.672 11.776L110.96 11.488L111.728 11.68L112.208 11.392L111.632 11.2L111.728 11.104L111.536 10.816H111.056L110.672 12.16L110.288 11.872L110.672 11.776ZM97.04 10.816L97.424 11.776L97.232 11.2L97.04 10.816ZM88.112 6.688V5.056L88.4 5.344L88.208 5.632V8.608L88.016 9.952L88.112 6.688ZM111.248 9.952V9.472H111.728L111.92 8.896L111.632 8.512L112.016 8.224L111.92 7.36V7.84H111.632V6.784L111.92 6.304H111.728L111.92 5.44L111.728 5.344L111.92 4.384H111.344L111.248 4.672H110.96L110.768 4.384L110.672 4.672L109.808 5.152H108.176L108.464 5.632L108.752 5.44H109.328L108.848 5.824H109.616L110.384 4.86399L110.576 5.056L110.384 5.344L110.672 6.592L110.384 6.784L110.576 7.264L110.096 7.648L109.616 7.36V8.032H110L110.384 7.648L110.576 8.32L110.288 8.992L110.384 9.76L111.248 9.952ZM109.136 7.552V7.07199L109.328 6.784L108.944 6.4L107.408 6.112L107.792 6.688H108.464L108.368 7.264L108.656 7.552H109.136ZM93.776 4.672L92.816 5.152V4.672H93.776ZM88.016 2.848L88.112 2.464L88.496 2.56V3.424L89.168 3.232L88.4 3.808L88.688 4.672H88.016V2.848ZM104.528 3.51999V4.384H104.336V3.904L104.528 3.51999ZM93.2 3.51999H93.584L93.2 4.192V3.51999ZM112.208 2.17599H110.096L111.728 1.888L112.208 2.17599ZM141.253 59.2H141.156H141.253ZM119.269 58.24L119.077 59.2L119.269 58.24ZM119.653 58.048H119.941H119.653ZM119.653 56.992L119.365 56.416L119.269 56.896L119.653 56.992ZM119.365 55.936L119.557 55.744L119.365 55.936ZM119.365 55.168L119.557 54.784H119.365V55.168ZM135.109 41.92H143.173L144.613 42.304V44.224L144.421 44.512L144.613 44.992L144.421 45.184L144.325 46.72L144.036 46.816L144.325 46.912L144.133 48.064V50.08L143.845 51.328L144.036 51.52L143.749 55.072V57.952L144.036 58.24L143.077 58.912L139.909 59.2L138.085 58.912V58.624L137.125 58.816H135.493L135.109 59.488H134.629V59.2L135.109 59.008L134.917 58.912L133.861 59.2L133.957 59.008H132.997L132.901 59.2L132.037 58.912L131.365 59.2L129.733 58.912L129.541 58.624L129.349 58.912L128.581 58.816L128.484 58.624L128.197 58.912H127.237L126.853 59.296L126.373 58.912L126.949 58.528L125.317 58.816V58.624L124.933 58.912V58.624H123.973L123.685 58.816L123.109 58.624H120.517L120.229 58.816V58.624L117.733 58.24L118.117 58.048L117.445 57.856L118.021 57.28L117.733 57.088L118.021 56.896V56.128L117.733 55.456L118.021 54.976H117.925L118.021 54.4L117.733 54.208L117.925 52.96L117.733 52.576L118.021 52.48L117.925 52.288L118.117 51.904L117.733 51.808V51.616L118.117 51.52L117.925 51.328L118.309 50.944L117.925 50.848L118.309 50.56L117.925 50.272L118.117 49.12L117.925 48.448L118.405 48.352L118.309 48.064L117.925 48.16L118.117 47.776L117.925 47.392H118.309L118.405 46.912L118.117 46.72V42.016H117.445L118.021 41.728H118.405L118.021 41.152L118.309 40.672H118.021V39.52L118.309 39.424L118.021 39.232V38.848L118.309 38.464H118.021V37.312L118.309 37.024V36.64H117.925L118.309 36.256L118.405 35.68L118.117 34.048L117.925 33.76L118.405 33.376L118.117 32.896L118.597 32.512L118.405 31.264L118.597 31.168L118.405 30.976L118.597 30.592L118.405 30.304L118.597 29.92L118.405 29.824L118.693 28.672L118.405 27.904L118.597 27.712V27.328L118.405 27.136V26.368L118.693 26.08L118.309 25.888L118.597 25.408V17.728L118.405 17.536L118.693 17.248V9.472H118.98V3.808L119.077 4.096H119.269V3.51999H118.693V1.6L118.98 1.024H125.701L125.893 0.831995L128.581 1.31199L128.101 1.6V5.344L127.909 5.44V8.992L128.293 9.472L127.621 9.76V17.248L127.812 17.824L127.621 18.208L127.525 19.456L127.333 19.648V49.024L128.101 49.312H129.733L132.709 49.696L134.245 49.408V45.952L134.437 45.76V44.224L134.245 43.552L134.437 43.36V42.88L134.149 42.688L134.533 41.92H135.109ZM118.405 48.64H118.117L118.309 48.928L118.405 48.64ZM142.885 44.608H143.077H142.885ZM142.501 44.224V43.936L142.693 43.84H142.213V44.032L142.501 44.224ZM118.309 38.752V39.52V38.752ZM119.941 19.072V18.4V19.072ZM119.077 19.168H119.269H119.077ZM119.941 18.784L120.229 18.112L119.941 17.92L119.653 18.208L119.845 18.4L119.941 18.784ZM120.133 16.192L120.229 16.288L120.133 16.192ZM119.845 15.904H120.229L119.941 15.52L119.845 15.904ZM120.133 15.232H119.941H120.133ZM120.133 14.944H119.941H120.133ZM120.901 13.696V13.312L120.325 14.368L120.901 13.696ZM120.805 12.64V13.024V12.64ZM120.133 12.64H120.325H120.133ZM120.517 12.352L120.805 12.064H121.093L120.517 11.776L120.229 12.064L120.517 12.352ZM120.229 11.2L120.901 11.68L120.229 11.2ZM121.477 11.392H121.093H121.477ZM120.805 9.184V8.992L120.325 8.608L120.229 8.992L120.805 9.184ZM120.325 8.032V8.32V8.032ZM121.861 8.32H122.053V8.032L121.861 7.936V8.32ZM120.805 7.648V7.36H120.325L120.805 7.648ZM120.517 7.07199L120.613 6.688H120.325L120.517 7.07199ZM120.901 7.07199H120.805H120.901ZM119.269 6.112V6.304V6.112ZM119.077 6.016L119.365 5.152L119.077 5.44V6.016ZM120.805 5.72799L120.901 5.824L120.805 5.72799ZM120.325 5.344L120.901 5.824L121.189 4.86399L121.285 5.152L120.325 5.344ZM119.077 4.768L119.557 5.152L119.365 4.86399L119.077 4.768ZM120.613 4.768L120.325 4.86399L120.613 4.768ZM119.269 4.48L119.077 4.384L119.269 4.48ZM120.517 3.51999L120.325 3.904L120.517 3.51999ZM120.805 3.232H120.613H120.805ZM120.805 2.944L120.901 2.56L120.805 2.944ZM120.805 2.272H120.517H120.805ZM147.367 55.552L147.175 55.264V54.784L147.559 54.496L147.079 54.208V44.224L146.887 42.88H147.175V37.888L146.983 37.12L147.175 36.736V33.472L146.983 33.664L147.175 33.184V27.328L146.983 27.04L147.367 25.024L147.175 24.448V21.856L146.983 21.568L147.367 21.376L147.079 21.184V20.704L147.367 20.32L147.079 20.128L147.367 20.032L147.175 19.552V19.648L147.367 19.552V19.168L146.983 18.496L147.367 18.4V18.112L147.079 17.92V17.152L147.463 17.056L146.983 16.576L146.887 15.904L147.367 15.616L147.463 15.136L147.175 15.04V13.408L147.367 13.216L147.175 12.256L147.367 11.968V9.27999L147.559 9.184L147.367 8.704L147.463 8.128H147.655L147.463 7.744V5.824L146.887 5.344H161.095L161.863 5.632H167.527L167.719 5.344L167.911 5.536H169.159L168.871 5.632L169.255 5.72799L169.351 5.536L169.927 5.632L170.311 6.592L169.639 11.68L169.831 11.776L169.639 12.064L169.734 13.024L169.639 12.928V16.864L169.351 16.96L169.639 17.152L169.255 17.728L169.447 17.632V17.92L169.159 18.112L169.639 18.208L169.351 18.496V19.456L169.734 19.648L169.255 20.32L169.447 20.416L169.159 20.512L169.351 20.608L169.255 21.376L169.447 21.472L169.159 21.856H169.351L169.255 22.048H169.447L169.255 22.336L169.351 23.008L169.159 24.064H169.351L169.159 24.928L169.351 25.024L169.159 25.888L168.967 25.984L169.159 26.08V26.752L170.215 26.944L169.159 27.04L168.967 28L169.159 28.864L168.871 29.248L169.159 29.728L168.967 31.36L169.159 32.32L168.967 32.416V37.12L169.159 37.504V40.768L168.967 40.96L169.255 41.344L168.967 41.632V47.2L169.159 47.392L168.967 47.584V52L169.159 52.096L168.967 52.48L169.255 52.576L168.967 52.672L169.159 52.96L168.967 53.056H169.255L168.871 53.44H169.159L168.967 53.728L169.255 54.016L168.967 54.688L169.159 54.784V55.264L167.911 56.224L167.431 56.128L167.527 56.224H165.991L165.319 56.416L165.223 56.224L164.455 56.416L164.359 56.224L163.879 56.128L162.823 56.416H161.863L161.479 56.128H161.095L160.903 55.936L160.999 55.552H160.519L161.383 55.168L161.095 55.072L161.479 54.784L160.999 54.688L161.095 54.592L160.903 54.304V53.728L161.287 53.248L161.095 53.152L161.383 53.056L160.999 52.96L161.095 52.48H160.807V52.192L161.479 52.288L160.999 51.808L161.479 51.136L161.287 51.04V50.56H160.903L160.999 50.272L161.479 49.984V49.792H161.287V49.6H160.807L161.095 49.312L160.711 48.736L160.903 48.544L160.711 48.352L160.807 47.584L161.095 47.296L160.999 47.392V46.528L160.903 46.72L161.191 45.76L160.999 44.32L161.191 41.728L161.095 41.344H155.143L154.855 41.92V45.76H154.951V55.264L154.567 56.416L152.647 56.032L151.879 55.648L151.591 55.936L148.519 56.128L148.327 55.744L147.943 55.936V55.648L147.367 55.552ZM148.903 55.744L148.615 55.936L148.903 55.744ZM151.303 55.744H151.111H151.303ZM147.943 54.112L149.191 55.072L149.383 54.496L147.943 54.592V54.112ZM152.455 54.688L152.935 54.208H151.591L151.495 54.016L151.398 54.304L152.455 54.688ZM152.359 53.728H152.167H152.359ZM161.959 53.056L162.343 52.96L162.247 52.096L162.535 51.712H161.959L161.863 52.48L162.055 52.192L161.863 52.768L161.959 53.056ZM160.807 53.056L160.903 52.768L160.807 53.056ZM161.479 51.328L161.383 51.808L161.479 51.328ZM162.535 51.328L162.727 51.808L162.823 51.616H162.727L162.535 51.328ZM160.999 51.616V51.232V51.616ZM161.959 51.136V51.232V51.136ZM161.383 50.656L161.479 51.232L161.383 50.656ZM160.711 50.08L160.903 49.984L160.711 50.08ZM161.095 48.736L160.999 48.256L161.095 48.736ZM161.095 48.064L160.999 48.352L161.095 48.064ZM160.999 47.104L160.903 47.584L160.999 47.104ZM161.095 43.84V44.8V43.84ZM160.999 44.8V43.648V44.8ZM160.327 36.448L160.423 37.312L160.327 36.448ZM158.599 36.448L158.791 36.352V35.968L160.039 36.256L160.327 35.968L160.423 36.16H160.807V35.68L160.519 35.968L160.423 35.776L160.231 35.872L160.039 35.68L158.887 36.448L158.407 35.968L158.599 36.448ZM159.559 36.352L159.463 36.448L159.559 36.352ZM159.943 35.968V35.776V35.968ZM160.711 33.664L160.807 33.472L160.711 33.664ZM155.335 33.664V33.472V33.664ZM168.679 32.512L168.775 33.472L168.679 32.512ZM161.383 30.496L161.287 31.552L161.383 30.496ZM161.479 29.344L161.287 28.96L161.479 29.344ZM160.711 28.576V28.48V28.576ZM161.479 28.096H161.383H161.479ZM160.999 27.52L161.287 28.096L160.999 27.52ZM161.575 22.432L161.287 22.816L161.575 22.432ZM147.367 20.992H147.175H147.367ZM155.815 22.144L155.623 22.336V23.008L155.911 23.296L155.527 24.448V26.848L155.335 27.52L155.431 28.288L155.143 28.768H155.431L155.143 29.44L155.335 29.536V30.304L155.623 30.496V33.856L158.503 33.472L158.599 33.76L158.791 33.472L158.887 33.664L159.463 33.856H160.423L160.903 32.992L160.711 33.184L161.287 32.416L160.999 32.8L160.903 32.512L161.191 32.32V30.88L161.383 30.784L161.191 30.592L161.287 29.824L161.575 30.496L161.287 30.592L161.479 29.536L160.999 29.248L161.383 28.48L160.903 28.576L161.287 27.808L160.903 28.096L160.711 27.904L161.191 26.944L161.479 25.792V23.488L161.383 23.584V22.144L161.575 21.856L161.287 21.568L161.479 21.376V20.992L161.287 21.184L161.575 20.416L161.287 20.608L161.191 19.936L161.383 18.4L161.095 18.112L161.479 18.016L161.287 17.536L161.479 16.672V13.024L160.999 12.928L155.815 13.504L155.527 13.792V16.672L155.335 16.864L155.623 17.44L155.431 17.632L155.623 18.208V19.936L155.815 22.144ZM169.159 19.168V20.032V19.168ZM161.095 18.592L161.287 18.496L161.095 18.592ZM161.479 17.152V18.112V17.152ZM147.175 15.904L147.367 15.712L147.175 15.904ZM146.983 15.232H147.079H146.983ZM155.431 13.504V13.792V13.504ZM169.927 7.84L169.734 8.032L169.927 7.84ZM169.831 6.88L169.927 8.032L169.831 6.88ZM150.439 6.784H150.631H150.439ZM148.903 6.688V6.784V6.688ZM149.479 6.592H149.959V6.784L150.535 6.496H150.919L151.398 6.20799L151.303 5.72799L150.151 6.016L149.959 5.824H148.519L148.135 6.016L148.903 6.592L148.999 6.304L149.383 6.496L149.191 6.688L149.479 6.592ZM151.975 6.688L152.551 6.592V6.304L152.839 6.496V5.824L152.167 6.496V6.016H151.687L151.495 6.592H151.015L151.975 6.688ZM153.031 6.496L152.935 6.688L153.031 6.496ZM154.279 6.304H154.471H154.279ZM155.335 6.20799H154.951H155.335ZM158.791 5.824L158.311 5.72799V6.016L158.791 5.824ZM149.671 6.20799V5.824L150.343 6.112L149.671 6.20799ZM151.687 6.304H151.975H151.687ZM153.799 6.20799V6.304V6.20799ZM149.383 6.304L149.191 6.112L149.383 6.304ZM157.543 6.112L157.734 5.824L157.255 6.016V5.72799H154.951V6.304L155.623 6.112H157.543ZM158.311 6.20799L158.023 6.112L158.311 6.20799ZM154.567 6.112V5.824H153.991L154.567 6.112ZM153.511 6.016H153.031H153.511ZM154.279 6.016H154.087H154.279ZM168.679 5.72799L168.487 6.016L168.679 5.72799ZM181.473 60.544L181.185 59.968L180.225 59.776V59.584L181.185 59.488L180.897 58.528L181.185 57.088L180.897 55.936L181.281 55.168L180.897 55.072L181.089 53.728V51.616L180.801 51.328L181.089 50.656L180.897 50.08L181.089 48.16L180.897 48.064L181.089 47.968L180.897 47.68L181.185 46.816V39.424L181.473 39.136L181.185 37.216V35.296L180.801 35.104L181.281 34.912V31.744L181.473 30.304V26.848L181.185 26.752L181.473 26.464L181.185 22.24V19.456H177.633L177.345 19.648H176.673L175.233 20.032H174.273L173.985 19.744L173.793 19.168L173.505 19.648L173.217 18.88V18.4L172.641 16.48L172.929 16.192L172.641 16L172.929 15.232L173.217 14.944L173.025 13.024L172.833 12.64L173.025 11.2L172.929 10.432L172.545 10.24L172.833 10.432L173.217 10.24L173.505 9.568L173.793 10.24L175.425 9.952H177.153L177.345 10.144L177.729 9.952L178.689 10.144H180.897L181.281 9.568V6.112L181.569 3.51999L181.473 2.272L182.817 1.792L183.393 2.17599H190.497L190.689 2.848L190.497 3.712L190.113 3.904L190.497 4.096L190.305 4.768L190.689 4.86399V5.344L190.401 5.44L190.497 6.016L190.689 6.112L190.401 6.304L190.689 6.4V6.688L190.401 6.976L190.497 7.36L190.113 7.552L190.497 7.648L190.305 8.032H190.017V8.224H190.785L190.401 8.992L190.689 9.184V9.472L190.305 9.568L190.785 9.952H197.025V9.76H197.985L198.657 10.144L198.945 9.952L199.521 10.24V10.528L198.657 11.392L198.753 11.68L199.233 11.2V12.736H198.945L199.233 13.12V14.08L199.041 14.368L199.233 14.848V15.52L198.945 15.616L199.233 15.808V17.248L199.041 17.44L199.233 17.536L199.329 17.92L198.945 18.112L199.521 18.784L197.985 20.032L196.065 20.416L194.817 20.32L194.529 20.128H193.185L192.705 20.32H190.977L190.305 25.216L190.401 25.696L190.113 25.792L190.401 25.888L190.305 26.464L191.265 26.752L190.401 27.328L190.689 28.384L190.401 28.672L190.497 29.92L190.305 30.208L190.689 30.88L190.113 31.168L190.689 31.456L190.305 31.552L190.689 31.936L190.401 32.8L190.785 34.72L191.265 34.912L190.977 35.104L190.689 35.68V36.256L190.401 36.544L190.497 36.832L190.113 37.216L190.689 37.312L190.305 38.56L190.785 38.752L190.497 40.384L190.689 40.768L190.497 41.056V41.632L190.689 41.728L190.497 41.92L190.689 43.072V44.992L190.305 47.968L190.689 48.064L190.497 48.64L190.689 49.696V51.328L190.977 53.152L190.785 53.824L190.977 54.784V58.24L190.785 58.816L190.497 58.912L190.401 59.2L190.113 59.296L191.073 59.584L189.825 59.872L189.537 60.544L189.153 60.448V60.16H188.385L187.233 60.448H182.049L181.473 60.544ZM189.537 59.872V60.544V59.872ZM186.177 58.336V57.376L185.985 56.896L185.601 58.24L186.177 58.336ZM181.281 52.864L181.185 52.576L181.281 52.864ZM190.497 38.272V38.176V38.272ZM190.305 37.984V38.176V37.984ZM190.401 34.72L190.305 34.912L190.401 34.72ZM190.401 34.144H190.113H190.401ZM190.113 31.552V31.744V31.552ZM184.353 31.168L184.065 30.304L183.489 30.016L184.065 30.88L184.353 31.168ZM190.305 29.536H190.113H190.305ZM197.313 17.152L197.601 16.864L197.313 16.48L197.601 16.192L197.313 15.616L197.121 15.808V16.768L197.313 17.152ZM197.313 15.232V15.328V15.232ZM198.945 13.984H198.753H198.945ZM198.945 13.6V13.696V13.6ZM175.137 12.064L175.425 11.776H175.137L175.041 12.064L174.753 12.16V13.696L175.041 12.448L175.137 12.064ZM178.881 11.776H179.169L179.361 11.2L178.881 11.488L178.689 11.392L178.401 11.68L178.881 11.776ZM196.065 11.68L196.545 11.776V11.488L196.065 11.68ZM176.193 11.2L176.385 10.816L176.673 10.912V10.72H174.561L174.465 11.68L175.041 11.2H176.193ZM194.817 11.2H194.529L194.145 11.488L194.817 11.2ZM195.873 11.392V11.104H195.201L195.393 11.2L195.873 11.392ZM175.233 11.104L175.425 11.392L175.233 11.104ZM193.569 11.104L194.241 11.392L193.953 11.2L193.569 11.104ZM177.441 11.104L177.633 11.2L177.153 10.816L177.441 11.104ZM193.281 10.912L193.185 11.104L193.281 10.912ZM195.777 10.912L196.161 10.72H195.489L195.777 10.912ZM177.921 10.72L177.729 10.912L177.921 10.72ZM194.241 10.72L194.145 10.912L194.241 10.72ZM187.809 8.608L187.329 8.8V8.032L187.809 8.32L188.097 8.032L187.617 7.552L187.905 7.07199L187.809 6.688H187.617V6.4L188.097 6.784V7.648L188.481 8.032L188.193 8.608L188.385 8.992H188.193L187.809 8.608ZM187.233 8.896L187.137 8.992L187.233 8.896ZM188.385 7.552H188.193H188.385ZM186.849 7.07199L186.945 7.264L186.849 7.07199ZM187.233 7.36H187.137H187.233ZM187.521 7.07199L187.617 7.36L187.521 7.07199ZM190.401 5.056V5.344V5.056ZM202.59 56.128L201.63 55.936L202.206 55.648L201.918 55.264L202.11 54.592L202.014 54.112L202.206 52.576V48.928L201.726 48.832L202.206 48.544V43.648L202.398 43.36L202.494 41.824L202.59 43.072L202.878 43.168L202.782 42.784L203.454 42.496H203.166L202.782 41.536L202.494 41.344V38.752L202.782 40.096L202.494 40.96H202.974L203.358 40.672V40.288L203.07 40.096L203.358 39.808L202.782 38.272V37.504L203.07 37.408H202.59L202.494 38.272L202.398 36.736L202.206 36.64L202.494 35.584L202.59 36.064L202.878 36.256L202.782 36.64H202.974V36.16L202.782 35.872V35.296H202.398V34.528H202.59L202.878 34.048L202.59 33.952L203.07 33.568L203.742 33.664V33.856H204.99L205.278 33.664H206.334L206.43 33.856H206.91L207.006 33.568L207.486 33.472V33.568L207.678 33.472L207.774 33.664L208.158 33.376L208.542 33.568H209.406L209.694 33.376L210.27 34.24L210.078 34.336V51.52L209.886 52.576L210.078 54.688L209.982 55.264L210.462 55.744L209.886 56.128H202.59ZM206.814 56.608L206.91 56.128L206.814 56.608ZM201.534 48.64V48.832V48.64ZM203.07 48.736L203.55 47.968L202.494 48.16L203.07 48.736ZM202.494 47.68L203.07 46.624H202.59L202.494 47.68ZM202.59 41.152H202.494H202.59ZM203.262 41.056V41.152V41.056ZM202.398 38.464H202.494H202.398ZM203.07 37.6L202.974 37.792L203.07 37.6ZM202.59 36.928L202.878 37.024L202.59 36.928ZM202.59 34.816L202.878 34.912L202.59 34.816ZM205.566 33.952L205.47 34.048L205.566 33.952ZM202.398 19.456V8.128L202.59 7.84H202.398V6.496L202.59 6.688L202.398 6.20799V5.536H202.59L202.206 5.248L204.222 4.768H208.542L209.118 4.48L210.846 4.672V10.336L210.558 10.624H210.846L210.558 11.968L210.846 12.352L210.462 12.832L210.558 14.08L210.75 14.176L210.558 15.04L210.75 15.232L210.558 15.328L210.942 16.384V17.056L210.558 17.632L210.75 17.536V19.36L209.886 19.84L202.398 19.456ZM202.59 15.712L202.398 15.904L202.59 15.712ZM202.782 14.848H202.59H202.782ZM202.782 14.56L203.166 13.984L202.59 14.176L202.782 14.56ZM202.59 13.696H203.262L203.166 13.6L203.55 13.024L202.59 12.64V13.696ZM202.59 12.352L203.454 11.488L203.262 11.392L203.454 10.528L202.59 10.912V11.68L202.782 12.16L202.59 11.872V12.352ZM202.59 10.048V10.144V10.048ZM205.278 4.86399L205.566 4.768L205.278 4.86399ZM210.078 4.86399H210.462H210.078ZM214.967 58.336L214.679 58.24L214.103 56.608V55.456L214.583 55.36L214.295 55.168L214.583 55.072L214.775 54.496L214.679 53.152L214.391 52.576L214.775 52.48L214.583 52.288V50.848L214.295 50.656L214.679 50.08H214.391L214.679 49.888V49.408L214.295 49.312L214.679 48.928L214.391 48.736V48.448L214.583 48.64H214.967L214.679 48.448L214.775 48.352L214.295 48.16L214.967 47.392L214.583 46.72V44.992L214.775 44.896L214.583 44.224L214.775 43.84V41.344L214.967 41.152L214.679 40.96L215.063 40.384L214.775 40.096L214.967 39.904L214.775 38.944L214.967 38.752L214.775 38.464L214.967 38.272L214.583 37.216H214.967V36.64L214.775 36.352L214.967 35.968L214.775 35.68L214.967 35.584L214.775 35.392L214.967 35.296L214.775 34.72L214.967 34.048V28L214.775 27.424L214.967 27.328V26.656L214.775 26.368L214.967 25.888L214.679 24.736L214.967 23.488L214.583 23.2V21.568L214.775 21.088L214.583 20.992L214.775 20.416H214.583L214.967 19.168H214.679L214.583 18.496L214.775 18.112V15.904L214.967 15.808L214.775 14.944L215.063 14.56V1.888H231.575V2.464H232.535L232.727 1.984L233.111 2.464H234.167L234.935 2.752H235.991L236.663 2.56L236.951 2.848H238.103L239.447 2.56L239.543 2.17599L238.583 1.984H239.831V2.272H240.311L240.407 2.464L240.791 2.272L240.983 2.56V6.016L240.791 6.304L241.079 6.688L240.791 6.784L241.079 7.36L240.791 9.27999L240.983 9.952L240.791 11.104L241.079 13.312L240.791 13.696V14.08L240.983 14.272V17.44L241.271 18.496L240.791 19.744L240.983 19.84V21.568L240.791 21.856V23.872L240.023 26.176V49.696L239.831 49.984L240.023 50.08V58.624L239.447 59.2H235.991L235.703 59.488H235.415L235.607 59.2H235.415L235.223 59.584H231.575L228.311 59.296L228.407 59.488L227.351 59.776H225.143V59.584H223.895L223.607 59.872L222.551 59.584L222.263 59.776L221.111 59.2H215.351L215.063 59.008L214.967 58.336ZM233.975 59.776L233.783 59.296L233.975 59.776ZM235.031 59.2H234.935H235.031ZM215.735 58.336L216.791 59.2L215.351 58.816L215.735 58.336ZM237.335 55.744L238.103 55.648V54.016L237.143 55.168L237.335 55.744ZM214.775 46.24L214.967 46.432L214.775 46.24ZM214.679 36.256L214.967 37.216L214.679 36.256ZM229.655 35.392H229.559H229.655ZM214.967 18.88L214.775 19.36L214.967 18.88ZM224.471 46.144V49.408L226.679 49.888H230.135V45.952L229.655 45.184L229.943 44.608L229.655 42.976L229.943 41.152V34.912H230.231V28.96L230.519 28.384L230.231 28V27.04L229.943 26.752H230.327V21.376L230.135 19.84L230.327 19.456V16.288L230.519 16.192L230.807 12.448L230.519 11.392L228.311 10.816H224.951V21.376L225.143 21.952V24.832L225.431 25.408L225.239 25.504V26.752H225.431L225.143 28.096V29.344L224.951 29.824L225.143 30.016L224.951 30.592V34.912L224.759 37.216L224.951 37.888L224.855 38.272L225.143 38.464L224.855 38.848L224.567 40.192L224.759 40.672V42.976L224.471 46.144ZM225.431 10.528L224.471 10.72L225.431 10.528ZM216.695 6.784L216.503 5.824L215.735 6.20799L216.695 6.784ZM216.695 3.424V2.752L216.311 2.944L216.695 3.424ZM232.055 1.888V2.17599L234.647 1.984L234.455 1.888H232.055ZM236.279 1.888L235.031 1.984H238.103L236.279 1.888ZM239.543 1.504H239.735H239.543ZM249.175 59.584H248.887H249.175ZM251.095 59.296H250.999H251.095ZM251.959 59.296H251.479H251.959ZM266.359 59.2L266.263 59.296L266.359 59.2ZM269.911 59.2L269.719 59.296L269.911 59.2ZM268.855 58.528V58.816V58.528ZM271.351 47.392L271.159 48.64L271.351 47.392ZM271.639 43.84H271.159H271.639ZM245.623 34.912H245.431H245.623ZM245.623 32.704H245.431H245.623ZM256.087 26.752H255.895H256.087ZM253.975 59.2L253.015 59.584L252.343 59.488L252.439 59.296L251.767 59.584H250.519L250.231 59.872V59.584H250.039L249.847 59.872H248.599V59.584H248.119L247.927 59.872L246.583 59.776L246.295 59.968L245.911 59.2L244.759 58.912L245.623 58.624L245.047 58.528V55.648L245.431 54.784L245.623 54.688L245.143 54.496L245.335 54.208H245.143L245.623 54.016L245.143 53.728V52.864L245.335 52.768L245.143 52.576L245.431 52.48L245.719 52L245.431 51.904L245.047 50.656L245.623 49.984L245.335 49.6L245.719 49.12L245.335 48.64V46.816L245.143 46.528V42.016L245.335 41.728L245.143 41.44V40.48L245.335 39.904H245.143L245.335 39.52L244.951 38.272L245.143 36.544H245.335L245.143 35.872L245.431 35.68L245.143 34.912L245.623 34.336L245.335 33.76L245.431 32.896L245.911 32.512L245.623 32.128V31.264L245.335 30.88L245.431 29.632L245.623 29.536V27.616L245.431 27.328L245.911 26.848L244.951 26.656L245.719 25.888V24.736L245.431 24.448L245.623 24.256V19.84L245.911 19.744V15.52L245.719 14.656L245.911 14.368V10.816L246.103 10.528H246.583L246.103 10.144V4.48L246.583 4.86399L246.679 4.192L246.007 4.096V2.17599L246.295 1.31199H255.223L255.799 1.888L255.223 2.17599V6.976L254.935 8.032L255.223 9.568H269.719V9.76L270.487 9.472L271.639 9.568V22.048H271.351L271.735 22.336L271.639 22.816L271.447 22.912L271.735 23.2V26.656L271.351 26.848V34.432L271.639 34.72L271.063 35.68L271.447 35.872L271.159 36.352L271.351 36.64V37.6L271.063 38.848V42.4L271.447 42.976L271.063 43.264V44.896L270.871 44.992L271.063 45.472L270.871 45.568L271.063 45.76L270.871 45.856L271.159 46.432L270.871 47.104V48.352L271.063 48.448L270.775 49.312V51.04L271.063 51.232L270.679 51.904V59.008L269.143 59.776L269.431 59.488L268.663 59.2L267.991 59.488L266.935 59.584L266.743 59.296L265.975 59.776L265.783 59.008L265.303 59.584L262.615 59.776L262.135 60.16L260.887 58.048L260.599 57.856L260.983 56.704V54.976L261.271 54.4L261.655 50.944V20.128L260.695 19.744V19.456L259.447 19.072L259.063 19.36L258.775 19.072H258.103V19.36L257.719 19.072L256.855 19.456L256.471 19.168L256.087 19.648L256.183 19.84L255.799 20.608V26.176L256.087 27.04L255.799 28.576L256.087 29.92L255.607 30.592L255.799 30.784V34.912H256.183L255.799 35.296V36.064L255.607 36.64V38.944L255.319 39.52V40.192L255.511 40.672L255.223 42.976V50.944H255.415L255.223 51.328V58.24L255.895 59.296L254.647 59.2H253.975ZM270.871 25.408V25.504V25.408ZM245.911 21.952V22.048V21.952ZM246.295 20.416H246.391H246.295ZM265.783 9.27999H265.687H265.783ZM266.743 9.27999H266.647H266.743ZM246.391 3.808L246.295 4.48L246.391 3.808Z" fill="white"/>
</svg>
